<svg width="146" height="146" viewBox="0 0 146 146" fill="none" xmlns="http://www.w3.org/2000/svg">
<path d="M100.701 70.6847H78.7476L94.2854 55.1469C95.2271 54.2052 95.2271 52.7338 94.2854 51.7921C93.3438 50.8505 91.8724 50.8505 90.9307 51.7921L75.3929 67.33V45.3769C75.3929 44.0821 74.3335 43.0227 73.0387 43.0227C71.7439 43.0227 70.6845 44.0821 70.6845 45.3769V67.33L55.1467 51.7921C54.205 50.8505 52.7336 50.8505 51.7919 51.7921C50.8502 52.7338 50.8502 54.2052 51.7919 55.1469L67.3297 70.6847H45.3767C44.0819 70.6847 43.0225 71.7441 43.0225 73.0389C43.0225 74.3337 44.0819 75.3931 45.3767 75.3931H67.3297L51.7919 90.9309C50.8502 91.8726 50.8502 93.344 51.7919 94.2857C52.7336 95.2274 54.205 95.2274 55.1467 94.2857L70.6845 78.7479V100.701C70.6845 101.996 71.7439 103.055 73.0387 103.055C74.3335 103.055 75.3929 101.996 75.3929 100.701V78.7479L90.9307 94.2857C91.8724 95.2274 93.3438 95.2274 94.2854 94.2857C95.2271 93.344 95.2271 91.8726 94.2854 90.9309L78.7476 75.3931H100.701C101.995 75.3931 103.055 74.3337 103.055 73.0389C103.055 71.7441 101.995 70.6847 100.701 70.6847Z" fill="#3F75E1"/>
<path d="M75.9175 2.08875L73.2715 1.93321L73.3234 1L79.8087 1.31107L79.7568 2.24429L77.1108 2.08875L76.7476 9.86553L75.6062 9.81369L75.9175 2.08875Z" fill="#3F75E1" stroke="#3F75E1"/>
<path d="M81.3657 1.05185L82.5071 1.20739L81.9364 5.09578C82.1439 4.7847 82.5071 4.57732 82.8703 4.42179C83.2334 4.26625 83.6485 4.21441 84.0636 4.26625C84.8937 4.36994 86.1389 5.09578 85.8276 7.27327L85.2569 10.9543L84.1154 10.7987L84.6343 7.22143C84.7899 6.23637 84.5305 5.30316 83.4929 5.14762C82.7665 5.04393 82.092 5.45869 81.8326 6.02899C81.7289 6.18453 81.7289 6.34006 81.677 6.54744L81.1063 10.2803L79.9648 10.1248L81.3657 1.05185Z" fill="#3F75E1" stroke="#3F75E1"/>
<path d="M88.2158 8.62124C87.8526 10.1247 88.6309 11.0061 89.7723 11.2653C90.5505 11.4727 91.0693 11.4727 91.5363 11.369V12.1986C91.1212 12.2504 90.3949 12.3022 89.4091 12.043C87.5413 11.5764 86.7631 10.0211 87.23 8.20648C87.697 6.39189 89.1497 5.19945 90.9137 5.66606C92.8852 6.18451 92.989 8.05094 92.6777 9.19154C92.6258 9.39892 92.522 9.6063 92.522 9.70999L88.2158 8.62124ZM91.64 8.67308C91.8476 7.9991 91.7957 6.80666 90.6024 6.49559C89.461 6.18451 88.7346 7.11773 88.4233 7.84356L91.64 8.67308Z" fill="#3F75E1" stroke="#3F75E1"/>
<path d="M98.9019 5.82156L99.9396 6.28817L98.2793 10.1766H98.3312C98.6944 9.96918 99.0057 9.7618 99.317 9.60626L103.053 7.63615L104.35 8.20644L99.9914 10.3839L101.133 16.3461L99.8877 15.8277L98.9019 10.7469L97.7605 11.3172L96.4634 14.376L95.4258 13.9094L98.9019 5.82156Z" fill="#3F75E1" stroke="#3F75E1"/>
<path d="M108.138 16.5536C106.997 18.5755 105.129 18.6792 103.78 17.9534C102.276 17.1239 101.757 15.413 102.743 13.6502C103.78 11.8357 105.596 11.4209 107.101 12.2504C108.657 13.1318 109.072 14.8945 108.138 16.5536ZM103.78 14.1687C103.106 15.3611 103.313 16.6573 104.247 17.2276C105.181 17.746 106.426 17.2794 107.101 16.0351C107.62 15.1019 107.827 13.6502 106.634 13.0281C105.441 12.406 104.351 13.1318 103.78 14.1687Z" fill="#3F75E1" stroke="#3F75E1"/>
<path d="M117.372 15.6722L112.962 21.8418C112.651 22.3084 112.288 22.8269 112.08 23.1898L111.25 22.6195L111.821 21.6863C111.146 22.0492 110.213 22.0492 109.382 21.427C108.137 20.5457 107.93 18.8348 109.071 17.2794C110.264 15.5685 112.08 15.3093 113.326 16.1907C114.104 16.761 114.363 17.4868 114.311 18.0571L116.49 14.9982L117.372 15.6722ZM113.222 19.4569C113.326 19.3532 113.429 19.1977 113.481 19.0422C113.792 18.3682 113.585 17.4868 112.91 17.0202C111.977 16.3462 110.783 16.761 109.953 17.9016C109.227 18.9385 109.123 20.1309 110.109 20.8567C110.731 21.3233 111.613 21.3233 112.288 20.7012C112.392 20.5975 112.495 20.4938 112.599 20.3383L113.222 19.4569Z" fill="#3F75E1" stroke="#3F75E1"/>
<path d="M115.712 22.4639C114.726 23.6564 115.038 24.7451 115.868 25.5228C116.49 26.0413 116.957 26.3005 117.372 26.456L116.957 27.1819C116.542 27.0263 115.868 26.7671 115.141 26.0931C113.689 24.797 113.689 23.0861 114.934 21.6863C116.179 20.2864 117.995 19.8717 119.396 21.116C120.952 22.4639 120.122 24.1748 119.396 25.0562C119.24 25.2117 119.084 25.3673 119.033 25.4191L115.712 22.4639ZM118.773 24.0711C119.24 23.5527 119.759 22.4639 118.825 21.6344C117.943 20.8567 116.854 21.3234 116.283 21.8418L118.773 24.0711Z" fill="#3F75E1" stroke="#3F75E1"/>
<path d="M121.056 25.5228C121.575 25.0043 122.042 24.5896 122.457 24.123L123.132 24.8488L122.25 25.7302L122.302 25.782C123.132 25.4191 123.962 25.5228 124.481 26.0931C124.584 26.1968 124.636 26.2486 124.688 26.3523L123.91 27.0781C123.858 26.9744 123.754 26.8708 123.651 26.7671C123.08 26.1968 122.25 26.1968 121.523 26.6634C121.368 26.7671 121.264 26.8708 121.108 26.9744L118.67 29.3075L117.892 28.478L121.056 25.5228Z" fill="#3F75E1" stroke="#3F75E1"/>
<path d="M121.523 30.6036C121.575 31.0183 121.783 31.5886 122.146 32.0553C122.665 32.6774 123.236 32.7292 123.651 32.4182C124.066 32.0553 124.118 31.6405 123.806 30.7591C123.391 29.6185 123.547 28.8408 124.118 28.3742C124.896 27.7521 126.037 27.8039 126.919 28.8927C127.334 29.3593 127.542 29.9296 127.594 30.3444L126.764 30.6554C126.712 30.3444 126.608 29.8778 126.245 29.4111C125.83 28.8927 125.259 28.8408 124.896 29.1519C124.481 29.463 124.533 29.9296 124.844 30.7591C125.207 31.8479 125.155 32.6256 124.429 33.2477C123.599 33.9735 122.457 33.7661 121.472 32.6256C121.057 32.1071 120.745 31.485 120.693 31.0183L121.523 30.6036Z" fill="#3F75E1" stroke="#3F75E1"/>
<path d="M132.782 32.8329L133.405 33.7661L126.816 37.9137L128.787 41.0763L128.009 41.5948L125.415 37.499L132.782 32.8329Z" fill="#3F75E1" stroke="#3F75E1"/>
<path d="M130.083 45.6387L130.758 45.224V45.1721C130.135 45.0684 129.461 44.7055 129.046 43.876C128.475 42.7354 128.994 41.7503 129.772 41.3356C131.121 40.6616 132.47 41.4911 133.559 43.6686L133.663 43.6168C134.13 43.3575 134.908 42.8391 134.338 41.6985C134.078 41.18 133.611 40.7134 133.196 40.4542L133.767 39.8839C134.286 40.195 134.856 40.7653 135.22 41.4911C136.102 43.202 135.116 44.1871 134.026 44.7574L131.951 45.7943C131.484 46.0535 131.017 46.3127 130.654 46.5719L130.083 45.6387ZM132.833 44.0315C132.314 42.8909 131.432 41.7503 130.395 42.3206C129.72 42.6317 129.668 43.2538 129.928 43.7723C130.291 44.4981 131.017 44.7055 131.536 44.6537C131.64 44.6537 131.795 44.6018 131.899 44.55L132.833 44.0315Z" fill="#3F75E1" stroke="#3F75E1"/>
<path d="M131.174 47.8681C131.589 47.7644 132.211 47.557 132.73 47.3496L139.838 44.6537L140.253 45.6906L136.57 47.0904C137.348 47.1941 138.074 47.7125 138.437 48.6976C139.008 50.1493 138.178 51.6528 136.414 52.3267C134.339 53.1044 132.782 52.2231 132.263 50.8751C131.952 50.0456 132.004 49.216 132.627 48.4902V48.4384L131.641 48.7494L131.174 47.8681ZM133.924 48.0754C133.768 48.1273 133.664 48.1791 133.56 48.2828C132.886 48.7494 132.627 49.579 132.938 50.3566C133.353 51.4454 134.546 51.8083 135.895 51.2898C137.088 50.8232 137.867 49.8382 137.4 48.6976C137.14 47.9718 136.362 47.5051 135.48 47.557C135.324 47.557 135.169 47.6088 135.013 47.6607L133.924 48.0754Z" fill="#3F75E1" stroke="#3F75E1"/>
<path d="M144.249 64.5104L142.485 63.5253L143.003 65.4436L142.121 65.5473L142.07 63.5772L140.721 65.0288L140.15 64.303L141.862 63.2661L139.942 62.6958L140.306 61.9181L142.07 62.9032L141.551 61.0368L142.433 60.9331V62.8513L143.834 61.3997L144.404 62.1255L142.744 63.1624L144.664 63.6809L144.249 64.5104Z" fill="#3F75E1" stroke="#3F75E1"/>
<path d="M143.936 77.2125L144.092 74.5684L145.025 74.6202L144.61 81.049L143.677 80.9972L143.832 78.3531L136.05 77.8346L136.102 76.694L143.936 77.2125Z" fill="#3F75E1" stroke="#3F75E1"/>
<path d="M144.922 82.6562L144.715 83.7968L140.876 83.1228C141.187 83.382 141.394 83.6931 141.55 84.056C141.706 84.4189 141.758 84.8337 141.654 85.2484C141.498 86.078 140.772 87.3223 138.645 86.9593L134.961 86.3372L135.168 85.1966L138.748 85.8187C139.734 85.9743 140.668 85.7669 140.824 84.6781C140.927 83.9523 140.512 83.2783 139.942 82.9673C139.786 82.8636 139.63 82.8117 139.423 82.8117L135.687 82.1896L135.895 81.049L144.922 82.6562Z" fill="#3F75E1" stroke="#3F75E1"/>
<path d="M137.243 89.3961C135.739 88.9813 134.857 89.759 134.545 90.8996C134.338 91.6773 134.338 92.1957 134.39 92.6624L133.56 92.6105C133.508 92.1957 133.456 91.4699 133.767 90.4849C134.286 88.6184 135.843 87.8407 137.658 88.3592C139.474 88.8777 140.616 90.3293 140.097 92.0921C139.526 94.0622 137.658 94.114 136.569 93.8029C136.361 93.7511 136.154 93.6474 136.05 93.6474L137.243 89.3961ZM137.088 92.8179C137.762 93.0253 138.956 93.0253 139.319 91.781C139.63 90.6922 138.748 89.9146 138.022 89.6035L137.088 92.8179Z" fill="#3F75E1" stroke="#3F75E1"/>
<path d="M139.838 100.076L139.371 101.113L135.531 99.4022V99.454C135.739 99.8169 135.946 100.128 136.102 100.439L138.022 104.224L137.451 105.52L135.376 101.113L129.409 102.15L129.98 100.906L135.064 100.024L134.546 98.8837L131.484 97.5357L131.951 96.4988L139.838 100.076Z" fill="#3F75E1" stroke="#3F75E1"/>
<path d="M128.891 109.149C126.868 107.957 126.816 106.09 127.594 104.794C128.476 103.342 130.188 102.824 131.9 103.809C133.716 104.846 134.079 106.661 133.197 108.164C132.315 109.719 130.551 110.134 128.891 109.149ZM131.381 104.846C130.188 104.172 128.891 104.328 128.32 105.261C127.75 106.194 128.269 107.438 129.462 108.112C130.396 108.631 131.797 108.89 132.471 107.697C133.145 106.505 132.419 105.416 131.381 104.846Z" fill="#3F75E1" stroke="#3F75E1"/>
<path d="M129.668 118.378L123.598 113.867C123.131 113.556 122.612 113.193 122.249 112.934L122.872 112.104L123.754 112.726C123.39 112.052 123.442 111.119 124.013 110.29C124.895 109.097 126.659 108.89 128.164 110.03C129.824 111.275 130.083 113.089 129.201 114.282C128.631 115.059 127.904 115.319 127.282 115.215L130.291 117.444L129.668 118.378ZM125.933 114.178C126.036 114.282 126.192 114.385 126.348 114.437C127.022 114.748 127.904 114.593 128.371 113.919C129.098 112.986 128.682 111.793 127.541 110.964C126.503 110.186 125.31 110.082 124.584 111.067C124.117 111.69 124.117 112.519 124.688 113.245C124.791 113.349 124.895 113.452 125.051 113.556L125.933 114.178Z" fill="#3F75E1" stroke="#3F75E1"/>
<path d="M122.873 116.615C121.731 115.578 120.59 115.889 119.812 116.718C119.241 117.341 119.033 117.755 118.878 118.222L118.151 117.807C118.307 117.392 118.618 116.718 119.293 115.993C120.59 114.593 122.302 114.593 123.703 115.837C125.104 117.081 125.415 118.948 124.222 120.296C122.821 121.799 121.161 120.97 120.279 120.192C120.123 120.037 119.967 119.881 119.915 119.829L122.873 116.615ZM121.212 119.622C121.731 120.14 122.769 120.659 123.651 119.726C124.429 118.896 124.014 117.807 123.495 117.185L121.212 119.622Z" fill="#3F75E1" stroke="#3F75E1"/>
<path d="M119.759 121.903C120.278 122.421 120.693 122.888 121.108 123.303L120.382 123.977L119.5 123.095L119.448 123.147C119.811 123.977 119.655 124.806 119.085 125.325C118.981 125.429 118.929 125.48 118.825 125.532L118.099 124.755C118.203 124.703 118.307 124.599 118.41 124.495C118.981 123.925 118.981 123.095 118.514 122.37C118.41 122.214 118.307 122.11 118.203 121.955L115.92 119.518L116.75 118.74L119.759 121.903Z" fill="#3F75E1" stroke="#3F75E1"/>
<path d="M114.622 122.266C114.207 122.318 113.585 122.473 113.17 122.836C112.547 123.355 112.495 123.925 112.806 124.34C113.17 124.754 113.585 124.806 114.415 124.495C115.556 124.08 116.334 124.236 116.801 124.858C117.424 125.636 117.32 126.828 116.283 127.658C115.764 128.073 115.245 128.28 114.83 128.332L114.519 127.502C114.83 127.45 115.297 127.347 115.764 126.984C116.283 126.569 116.334 126.051 116.023 125.636C115.712 125.221 115.245 125.273 114.415 125.532C113.325 125.895 112.547 125.791 111.924 125.066C111.25 124.184 111.406 123.044 112.599 122.11C113.118 121.696 113.74 121.436 114.259 121.333L114.622 122.266Z" fill="#3F75E1" stroke="#3F75E1"/>
<path d="M112.185 133.516L111.199 134.087L107.152 127.45L103.987 129.369L103.521 128.539L107.671 125.999L112.185 133.516Z" fill="#3F75E1" stroke="#3F75E1"/>
<path d="M99.4741 130.561L99.8891 131.235H99.941C100.045 130.665 100.46 129.939 101.238 129.576C102.379 129.006 103.365 129.524 103.728 130.354C104.403 131.702 103.521 133.05 101.342 134.087L101.394 134.19C101.601 134.657 102.172 135.435 103.313 134.864C103.832 134.605 104.299 134.19 104.559 133.724L105.129 134.294C104.818 134.812 104.247 135.331 103.521 135.694C101.809 136.523 100.823 135.538 100.252 134.45L99.2146 132.324C98.9552 131.857 98.6958 131.391 98.4883 131.028L99.4741 130.561ZM101.031 133.361C102.172 132.842 103.313 132.013 102.795 130.924C102.483 130.25 101.861 130.146 101.342 130.406C100.615 130.769 100.356 131.443 100.46 132.013C100.46 132.117 100.512 132.272 100.564 132.376L101.031 133.361Z" fill="#3F75E1" stroke="#3F75E1"/>
<path d="M97.1898 131.598C97.2935 132.013 97.5011 132.635 97.7086 133.153L100.303 140.256L99.2651 140.619L97.9161 136.938C97.7605 137.716 97.2416 138.39 96.3078 138.753C94.855 139.271 93.3505 138.442 92.7279 136.627C91.9496 134.501 92.9354 132.998 94.2325 132.531C95.0626 132.22 95.8927 132.324 96.6191 132.946H96.6709L96.3596 131.961L97.1898 131.598ZM96.9303 134.346C96.8785 134.19 96.8266 134.087 96.7228 133.983C96.2559 133.309 95.4258 133.05 94.6475 133.309C93.5061 133.724 93.1948 134.864 93.6618 136.212C94.0768 137.405 95.0626 138.182 96.204 137.768C96.9303 137.508 97.4492 136.731 97.3454 135.849C97.3454 135.694 97.2935 135.538 97.2416 135.383L96.9303 134.346Z" fill="#3F75E1" stroke="#3F75E1"/>
<path d="M80.3285 144.404L81.3662 142.641L79.4465 143.16L79.3428 142.278H81.3143L79.8616 140.878L80.6398 140.308L81.6256 142.019L82.2482 140.101L83.0264 140.464L81.9888 142.174L83.8566 141.708L83.9603 142.589H82.0407L83.4415 143.989L82.7151 144.559L81.6775 142.848L81.1068 144.767L80.3285 144.404Z" fill="#3F75E1" stroke="#3F75E1"/>
<path d="M67.6168 143.885L70.2628 144.093L70.159 145.026L63.7256 144.508L63.8293 143.574L66.4754 143.782L67.098 136.005L68.2394 136.109L67.6168 143.885Z" fill="#3F75E1" stroke="#3F75E1"/>
<path d="M62.1179 144.767L60.9765 144.559L61.7029 140.723C61.4435 140.982 61.1322 141.241 60.769 141.345C60.4058 141.449 59.9908 141.552 59.5757 141.449C58.7456 141.293 57.5004 140.515 57.9155 138.39L58.5899 134.709L59.7313 134.916L59.0569 138.442C58.8493 139.427 59.0569 140.36 60.1464 140.567C60.8728 140.723 61.5472 140.308 61.8585 139.738C61.9623 139.582 62.0142 139.427 62.0142 139.219L62.7405 135.486L63.8819 135.694L62.1179 144.767Z" fill="#3F75E1" stroke="#3F75E1"/>
<path d="M55.5806 136.938C55.9956 135.435 55.2174 134.553 54.1279 134.242C53.3496 133.983 52.8308 133.983 52.3638 134.035L52.4157 133.205C52.8308 133.153 53.5571 133.153 54.5429 133.413C56.4107 133.983 57.137 135.538 56.5663 137.301C56.0475 139.116 54.5429 140.204 52.7789 139.686C50.8074 139.116 50.8074 137.197 51.1187 136.109C51.1705 135.901 51.2743 135.694 51.3262 135.59L55.5806 136.938ZM52.1044 136.783C51.8969 137.457 51.845 138.649 53.0902 139.012C54.1797 139.323 55.0099 138.494 55.3212 137.716L52.1044 136.783Z" fill="#3F75E1" stroke="#3F75E1"/>
<path d="M44.7893 139.375L43.7517 138.908L45.5157 135.072H45.4638C45.1006 135.279 44.7893 135.487 44.4262 135.642L40.6387 137.457L39.3936 136.886L43.8555 134.864L42.9216 128.85L44.1149 129.421L44.8931 134.501L46.0345 133.983L47.4353 130.976L48.473 131.443L44.7893 139.375Z" fill="#3F75E1" stroke="#3F75E1"/>
<path d="M35.9171 128.28C37.1104 126.31 39.03 126.258 40.3271 127.036C41.7798 127.917 42.2467 129.68 41.2091 131.339C40.1195 133.153 38.3037 133.465 36.7991 132.583C35.2945 131.702 34.9313 129.939 35.9171 128.28ZM40.2233 130.82C40.9497 129.628 40.794 128.332 39.8601 127.762C38.9263 127.191 37.6811 127.658 36.9547 128.85C36.384 129.784 36.1765 131.183 37.3179 131.909C38.4593 132.583 39.6007 131.857 40.2233 130.82Z" fill="#3F75E1" stroke="#3F75E1"/>
<path d="M26.6816 128.85L31.2992 122.836C31.6624 122.37 32.0255 121.903 32.2331 121.54L33.0632 122.162L32.4406 123.044C33.167 122.681 34.1008 122.733 34.8791 123.355C36.0724 124.288 36.228 125.999 35.0866 127.502C33.8414 129.161 32.0255 129.369 30.7804 128.436C30.0021 127.865 29.7946 127.088 29.8465 126.517L27.5636 129.472L26.6816 128.85ZM30.936 125.221C30.8322 125.325 30.7285 125.48 30.6766 125.636C30.3653 126.31 30.5209 127.191 31.1954 127.71C32.1293 128.436 33.3226 128.021 34.1527 126.932C34.931 125.947 35.0866 124.703 34.1008 123.977C33.4783 123.51 32.6481 123.51 31.9218 124.029C31.818 124.132 31.7142 124.236 31.5586 124.392L30.936 125.221Z" fill="#3F75E1" stroke="#3F75E1"/>
<path d="M28.5492 122.162C29.5868 121.022 29.3274 119.881 28.4973 119.103C27.9266 118.533 27.4596 118.326 26.9927 118.118L27.4077 117.392C27.8228 117.548 28.4454 117.859 29.1717 118.533C30.5726 119.881 30.5207 121.592 29.2236 122.94C27.9266 124.288 26.0588 124.599 24.7617 123.355C23.2571 121.955 24.1391 120.244 24.9174 119.414C25.073 119.259 25.2287 119.155 25.3324 119.052L28.5492 122.162ZM25.5919 120.451C25.073 120.97 24.5542 122.007 25.4362 122.888C26.2663 123.666 27.3559 123.251 27.9785 122.733L25.5919 120.451Z" fill="#3F75E1" stroke="#3F75E1"/>
<path d="M23.3095 118.896C22.7388 119.363 22.2719 119.829 21.9087 120.244L21.2342 119.518L22.1162 118.689L22.0643 118.637C21.2342 119 20.4041 118.844 19.8853 118.274C19.7815 118.17 19.7296 118.118 19.6777 118.015L20.456 117.289C20.5079 117.393 20.5597 117.496 20.6635 117.6C21.1823 118.222 22.0124 118.222 22.7907 117.755C22.9463 117.652 23.102 117.548 23.2057 117.444L25.6961 115.215L26.4225 116.045L23.3095 118.896Z" fill="#3F75E1" stroke="#3F75E1"/>
<path d="M23.0509 113.815C22.999 113.4 22.8433 112.778 22.4801 112.364C21.9613 111.69 21.3906 111.638 20.9755 111.949C20.5605 112.26 20.5086 112.726 20.768 113.556C21.1312 114.697 20.9755 115.474 20.353 115.941C19.5747 116.563 18.3814 116.407 17.5513 115.371C17.1881 114.852 16.9806 114.334 16.9287 113.919L17.7588 113.66C17.8107 113.971 17.9145 114.437 18.2777 114.904C18.6927 115.422 19.2115 115.474 19.5747 115.215C19.9898 114.904 19.9379 114.437 19.6785 113.608C19.3153 112.467 19.4191 111.741 20.1454 111.171C21.0274 110.497 22.1688 110.704 23.0509 111.897C23.4659 112.415 23.7253 113.038 23.7772 113.556L23.0509 113.815Z" fill="#3F75E1" stroke="#3F75E1"/>
<path d="M11.8441 111.171L11.2734 110.186L18.0182 106.246L16.1504 103.031L16.9805 102.565L19.419 106.764L11.8441 111.171Z" fill="#3F75E1" stroke="#3F75E1"/>
<path d="M15.0087 98.5209L14.3343 98.9356V98.9875C14.905 99.0912 15.6313 99.5059 15.9945 100.335C16.5133 101.476 15.9945 102.461 15.1644 102.824C13.7635 103.446 12.4665 102.565 11.4807 100.387L11.377 100.439C10.91 100.647 10.1318 101.165 10.6506 102.357C10.91 102.876 11.3251 103.342 11.7401 103.654L11.1694 104.224C10.6506 103.913 10.1318 103.291 9.82048 102.565C8.99036 100.802 10.028 99.8688 11.1694 99.2985L13.2966 98.3135C13.8154 98.1061 14.2824 97.8469 14.5937 97.5876L15.0087 98.5209ZM12.2071 100.024C12.7259 101.165 13.5041 102.357 14.5937 101.839C15.2681 101.528 15.3719 100.958 15.1125 100.387C14.7493 99.6615 14.0748 99.4022 13.5041 99.4541C13.4004 99.4541 13.2447 99.5059 13.141 99.5578L12.2071 100.024Z" fill="#3F75E1" stroke="#3F75E1"/>
<path d="M14.0228 96.2397C13.6077 96.3434 12.9852 96.5508 12.4663 96.7063L5.30654 99.143L4.94336 98.0543L8.6789 96.7581C7.90066 96.6026 7.22619 96.0841 6.9149 95.0991C6.39607 93.6474 7.27807 92.1439 9.09396 91.5736C11.2211 90.8478 12.7257 91.8328 13.1927 93.129C13.504 94.0103 13.4002 94.788 12.7776 95.5138V95.5657L13.7634 95.2546L14.0228 96.2397ZM11.273 95.9286C11.4287 95.8768 11.5324 95.8249 11.6362 95.7212C12.3107 95.2546 12.622 94.4769 12.3626 93.6474C11.9994 92.5068 10.8061 92.1439 9.45714 92.6105C8.26384 93.0253 7.43372 93.9585 7.84878 95.1509C8.10819 95.8768 8.83455 96.3952 9.71655 96.3434C9.8722 96.3434 10.0278 96.2915 10.1835 96.2397L11.273 95.9286Z" fill="#3F75E1" stroke="#3F75E1"/>
<path d="M1.51808 79.1307L3.28208 80.1677L2.81514 78.2494L3.69714 78.1457V80.1158L5.09797 78.716L5.66868 79.4937L3.95656 80.4787L5.87621 81.1009L5.51303 81.8785L3.80091 80.8416L4.26785 82.7081L3.38585 82.8118L3.43773 80.8935L1.98502 82.2933L1.46619 81.5675L3.17832 80.5824L1.31055 80.0121L1.51808 79.1307Z" fill="#3F75E1" stroke="#3F75E1"/>
<path d="M2.24518 66.4286L1.98577 69.0728L1 68.9691L1.62259 62.5403L2.55648 62.6439L2.34895 65.2881L10.0794 66.0657L9.97568 67.2063L2.24518 66.4286Z" fill="#3F75E1" stroke="#3F75E1"/>
<path d="M1.4668 60.9849L1.67433 59.8443L5.51364 60.622C5.25422 60.3628 4.99481 60.0517 4.89104 59.6369C4.78728 59.274 4.7354 58.8592 4.78728 58.4445C4.94293 57.615 5.72117 56.4225 7.84835 56.8373L11.532 57.615L11.3245 58.7556L7.79647 58.0297C6.8107 57.8223 5.87681 58.0297 5.66928 59.0666C5.51364 59.7925 5.9287 60.4664 6.4994 60.7775C6.65505 60.8812 6.8107 60.933 7.01823 60.9849L10.7538 61.7626L10.5462 62.9032L1.4668 60.9849Z" fill="#3F75E1" stroke="#3F75E1"/>
<path d="M9.40496 54.5042C10.8577 54.9709 11.7916 54.1932 12.1547 53.1044C12.4142 52.3267 12.4142 51.8083 12.3623 51.3417L13.1924 51.3935C13.2443 51.8083 13.2443 52.5341 12.933 53.5192C12.3623 55.3338 10.8058 56.0596 8.9899 55.4893C7.17401 54.919 6.08448 53.4155 6.65519 51.6528C7.27778 49.6826 9.14555 49.7345 10.2351 50.0974C10.4426 50.1492 10.5983 50.2529 10.7539 50.3048L9.40496 54.5042ZM9.61249 51.0825C8.93802 50.8751 7.74472 50.8232 7.38154 52.0157C7.01837 53.1044 7.90037 53.9339 8.62673 54.245L9.61249 51.0825Z" fill="#3F75E1" stroke="#3F75E1"/>
<path d="M7.12207 43.7205L7.6409 42.6836L11.4283 44.55V44.4982C11.2208 44.1353 11.0651 43.7723 10.9095 43.4613L9.14549 39.6247L9.76808 38.3804L11.6877 42.8391L17.7061 42.0096L17.1354 43.202L11.999 43.876L12.5179 45.0685L15.527 46.5201L15.0082 47.557L7.12207 43.7205Z" fill="#3F75E1" stroke="#3F75E1"/>
<path d="M18.3798 35.0623C20.3514 36.3066 20.3514 38.2249 19.5212 39.4692C18.6392 40.9208 16.8752 41.3356 15.1631 40.2987C13.3991 39.1581 13.0878 37.3435 14.0217 35.8918C15.0075 34.3365 16.7196 34.0254 18.3798 35.0623ZM15.7857 39.3136C16.9271 40.0395 18.2242 39.9358 18.8468 39.0026C19.4175 38.0693 19.0024 36.8251 17.8091 36.0992C16.9271 35.5289 15.4744 35.2697 14.748 36.4103C14.0217 37.499 14.748 38.6396 15.7857 39.3136Z" fill="#3F75E1" stroke="#3F75E1"/>
<path d="M17.9665 25.8339L23.8811 30.5518C24.2961 30.9147 24.815 31.2776 25.1781 31.5368L24.5555 32.3145L23.6735 31.6924C23.9848 32.4182 23.933 33.3514 23.3104 34.1291C22.3765 35.3215 20.6125 35.4252 19.1598 34.2328C17.4995 32.9367 17.3439 31.1221 18.2778 29.9296C18.9004 29.2038 19.6267 28.9446 20.1974 29.0483L17.292 26.7152L17.9665 25.8339ZM21.5464 30.137C21.4426 30.0333 21.2869 29.9296 21.1313 29.8778C20.4568 29.5667 19.6267 29.6704 19.056 30.3444C18.3296 31.2776 18.6928 32.47 19.7824 33.2996C20.7681 34.0772 21.9614 34.2846 22.7397 33.2996C23.2066 32.6774 23.2585 31.8479 22.7397 31.1221C22.6359 31.0184 22.5321 30.8628 22.3765 30.7592L21.5464 30.137Z" fill="#3F75E1" stroke="#3F75E1"/>
<path d="M24.6586 27.804C25.8 28.8927 26.9414 28.6335 27.7197 27.804C28.2904 27.2337 28.5498 26.7671 28.7054 26.3523L29.4318 26.7671C29.2761 27.1818 28.9648 27.804 28.2385 28.5298C26.8895 29.9296 25.1774 29.8259 23.8285 28.5298C22.4795 27.2337 22.2201 25.3673 23.4653 24.0711C24.918 22.6195 26.5782 23.5008 27.4084 24.2785C27.564 24.434 27.6678 24.5896 27.7715 24.6933L24.6586 27.804ZM26.4226 24.8488C25.9038 24.3304 24.918 23.7601 23.9841 24.6933C23.154 25.5228 23.5691 26.6115 24.0879 27.2337L26.4226 24.8488Z" fill="#3F75E1" stroke="#3F75E1"/>
<path d="M27.9787 22.6195C27.5118 22.0492 27.0967 21.5826 26.6816 21.1678L27.4599 20.4938L28.29 21.427L28.3419 21.3752C28.0306 20.5457 28.1862 19.7161 28.7569 19.1977C28.8607 19.094 28.9126 19.0421 29.0164 18.9903L29.7427 19.8198C29.6389 19.8717 29.5352 19.9235 29.4314 20.0272C28.8088 20.5457 28.8088 21.3752 29.2239 22.1529C29.3277 22.3084 29.3795 22.4639 29.5352 22.5676L31.7142 25.108L30.7804 25.8857L27.9787 22.6195Z" fill="#3F75E1" stroke="#3F75E1"/>
<path d="M33.1144 22.4121C33.5294 22.4121 34.152 22.2047 34.5671 21.8936C35.2416 21.3752 35.2934 20.8567 34.9821 20.4419C34.6709 20.0272 34.2039 19.9753 33.3738 20.2346C32.2324 20.5975 31.4541 20.3901 30.9872 19.8198C30.3646 18.9903 30.5203 17.8497 31.6098 17.072C32.1286 16.7091 32.6993 16.5017 33.0625 16.4499L33.3219 17.2794C33.0106 17.2794 32.5437 17.3831 32.0767 17.746C31.5579 18.1608 31.4541 18.6792 31.7654 19.0421C32.0767 19.4569 32.4918 19.405 33.3738 19.1977C34.5152 18.8866 35.2934 18.9903 35.8123 19.7161C36.4867 20.5975 36.2273 21.7381 35.034 22.6194C34.4633 23.0342 33.8926 23.2934 33.3738 23.3453L33.1144 22.4121Z" fill="#3F75E1" stroke="#3F75E1"/>
<path d="M35.917 11.3172L36.9028 10.7469L40.7421 17.5386L44.0107 15.7241L44.4776 16.5536L40.2232 18.9385L35.917 11.3172Z" fill="#3F75E1" stroke="#3F75E1"/>
<path d="M48.5769 14.6872L48.1619 14.0132H48.11C48.0062 14.5835 47.5393 15.2575 46.7092 15.6204C45.5678 16.1388 44.582 15.5685 44.2188 14.739C43.5962 13.3392 44.4782 12.0431 46.7092 11.058L46.6573 10.9543C46.4498 10.4877 45.9309 9.71003 44.7895 10.2285C44.2707 10.4877 43.7519 10.9025 43.4925 11.3172L42.9736 10.7469C43.3368 10.2285 43.9075 9.71003 44.6339 9.39896C46.3979 8.62128 47.3318 9.60634 47.8506 10.7988L48.7845 12.9244C48.992 13.4429 49.2514 13.9095 49.5108 14.2724L48.5769 14.6872ZM47.1242 11.8357C45.9828 12.3023 44.7895 13.08 45.2565 14.2206C45.5678 14.8945 46.1385 14.9982 46.6573 14.7909C47.3836 14.4798 47.6431 13.754 47.6431 13.2355C47.6431 13.1318 47.5912 12.9763 47.5393 12.8726L47.1242 11.8357Z" fill="#3F75E1" stroke="#3F75E1"/>
<path d="M50.8583 13.7021C50.7545 13.2873 50.5989 12.6652 50.3914 12.1467L48.0566 4.94022L49.1462 4.5773L50.3395 8.31016C50.4951 7.53248 51.0658 6.85849 51.9997 6.54742C53.5043 6.08081 54.9051 6.96218 55.5277 8.77676C56.2022 10.9024 55.2164 12.4059 53.8675 12.8207C52.9855 13.0799 52.2072 12.9762 51.4809 12.3541H51.429L51.6884 13.3391L50.8583 13.7021ZM51.1696 10.9543C51.2215 11.1098 51.2734 11.2135 51.3252 11.3172C51.7922 11.9912 52.5704 12.3022 53.3487 12.043C54.4901 11.6801 54.8533 10.5395 54.4382 9.13968C54.075 7.94724 53.0892 7.11772 51.9478 7.48063C51.2215 7.73986 50.7027 8.46569 50.7027 9.34706C50.7027 9.5026 50.7027 9.65813 50.8064 9.81367L51.1696 10.9543Z" fill="#3F75E1" stroke="#3F75E1"/>
<path d="M65.1777 1.77769L64.1919 3.54042L66.1116 3.02197L66.2153 3.90334H64.2438L65.6965 5.30316L64.9701 5.87346L63.9844 4.16256L63.258 6.13268L62.4798 5.76977L63.5174 4.05887L61.6497 4.57733L61.5459 3.69596H63.4656L62.0647 2.29614L62.7911 1.72584L63.8287 3.38489L64.3994 1.46661L65.1777 1.77769Z" fill="#3F75E1" stroke="#3F75E1"/>
</svg>
