<svg width="187" height="22" viewBox="0 0 187 22" fill="none" xmlns="http://www.w3.org/2000/svg">
<path d="M10.7 12.1C10.7 14.6405 8.64051 16.7 6.1 16.7C3.55949 16.7 1.5 14.6405 1.5 12.1C1.5 9.55949 3.55949 7.5 6.1 7.5C8.64051 7.5 10.7 9.55949 10.7 12.1Z" fill="#EDEDED" stroke="#FAFAFA" stroke-width="3"/>
<path d="M185.1 12.1C185.1 14.6405 183.04 16.7 180.5 16.7C177.959 16.7 175.9 14.6405 175.9 12.1C175.9 9.55949 177.959 7.5 180.5 7.5C183.04 7.5 185.1 9.55949 185.1 12.1Z" fill="#EDEDED" stroke="#FAFAFA" stroke-width="3"/>
<path d="M19.2202 13.058V10.808H24.3142V13.058H19.2202ZM33.469 13.058V10.808H38.563V13.058H33.469ZM47.7178 13.058V10.808H52.8118V13.058H47.7178ZM61.9667 13.058V10.808H67.0607V13.058H61.9667ZM76.2155 13.058V10.808H81.3095V13.058H76.2155ZM90.4643 13.058V10.808H95.5583V13.058H90.4643ZM104.713 13.058V10.808H109.807V13.058H104.713ZM118.962 13.058V10.808H124.056V13.058H118.962ZM133.211 13.058V10.808H138.305V13.058H133.211ZM147.46 13.058V10.808H152.554V13.058H147.46ZM161.708 13.058V10.808H166.802V13.058H161.708Z" fill="#EDEDED"/>
</svg>
