<svg width="22" height="82" viewBox="0 0 22 82" fill="none" xmlns="http://www.w3.org/2000/svg">
<path d="M9.9 10.7C7.35949 10.7 5.3 8.64051 5.3 6.1C5.3 3.55949 7.35949 1.5 9.9 1.5C12.4405 1.5 14.5 3.55949 14.5 6.1C14.5 8.64051 12.4405 10.7 9.9 10.7Z" fill="#EDEDED" stroke="#FAFAFA" stroke-width="3"/>
<path d="M9.9 79.7C7.35949 79.7 5.3 77.6405 5.3 75.1C5.3 72.5595 7.35949 70.5 9.9 70.5C12.4405 70.5 14.5 72.5595 14.5 75.1C14.5 77.6405 12.4405 79.7 9.9 79.7Z" fill="#EDEDED" stroke="#FAFAFA" stroke-width="3"/>
<path d="M8.942 24.2155L11.192 24.2155L11.192 29.3095L8.942 29.3095L8.942 24.2155ZM8.942 38.4643L11.192 38.4643L11.192 43.5583L8.942 43.5583L8.942 38.4643ZM8.942 52.7131L11.192 52.7131L11.192 57.8071L8.942 57.8071L8.942 52.7131Z" fill="#EDEDED"/>
</svg>
