<svg width="26" height="25" viewBox="0 0 26 25" fill="none" xmlns="http://www.w3.org/2000/svg">
<path d="M19.9619 0H6.71269C3.48444 0 0.867432 2.61701 0.867432 5.84526V19.0945C0.867432 22.3227 3.48444 24.9398 6.71269 24.9398H19.9619C23.1902 24.9398 25.8072 22.3227 25.8072 19.0945V5.84526C25.8072 2.61701 23.1902 0 19.9619 0Z" fill="#3F75E1"/>
<path d="M19.9619 0H6.71269C3.48444 0 0.867432 2.61701 0.867432 5.84526V19.0945C0.867432 22.3227 3.48444 24.9398 6.71269 24.9398H19.9619C23.1902 24.9398 25.8072 22.3227 25.8072 19.0945V5.84526C25.8072 2.61701 23.1902 0 19.9619 0Z" fill="#3F75E1"/>
<path d="M13.3382 2.72803C10.6924 2.72803 10.3603 2.73962 9.32123 2.78687C8.28408 2.83441 7.57613 2.99857 6.95672 3.23949C6.31589 3.4883 5.77238 3.82119 5.23091 4.36285C4.68896 4.90441 4.35607 5.44792 4.10648 6.08847C3.86488 6.70806 3.70053 7.41631 3.65386 8.45297C3.60739 9.49216 3.59521 9.82436 3.59521 12.4702C3.59521 15.1161 3.60691 15.4471 3.65406 16.4862C3.70179 17.5233 3.86595 18.2313 4.10667 18.8507C4.35568 19.4915 4.68857 20.0351 5.23023 20.5765C5.7716 21.1185 6.31511 21.4521 6.95546 21.701C7.57535 21.9419 8.2834 22.106 9.32035 22.1536C10.3595 22.2008 10.6914 22.2124 13.337 22.2124C15.9831 22.2124 16.3141 22.2008 17.3532 22.1536C18.3903 22.106 19.0991 21.9419 19.719 21.701C20.3595 21.4521 20.9022 21.1185 21.4435 20.5765C21.9855 20.0351 22.3183 19.4915 22.5679 18.851C22.8074 18.2313 22.9718 17.5232 23.0206 16.4864C23.0672 15.4473 23.0794 15.1161 23.0794 12.4702C23.0794 9.82436 23.0672 9.49235 23.0206 8.45316C22.9718 7.41602 22.8074 6.70816 22.5679 6.08876C22.3183 5.44792 21.9855 4.90441 21.4435 4.36285C20.9017 3.82099 20.3597 3.48811 19.7184 3.23958C19.0973 2.99857 18.389 2.83431 17.3518 2.78687C16.3126 2.73962 15.9818 2.72803 13.3352 2.72803H13.3382ZM12.4642 4.48365C12.7237 4.48326 13.0131 4.48365 13.3382 4.48365C15.9394 4.48365 16.2477 4.493 17.2749 4.53967C18.2247 4.58312 18.7403 4.74182 19.0837 4.87519C19.5383 5.05171 19.8625 5.26282 20.2032 5.60389C20.5442 5.94487 20.7552 6.26957 20.9322 6.72423C21.0656 7.06716 21.2245 7.58271 21.2678 8.53256C21.3144 9.55957 21.3246 9.86801 21.3246 12.468C21.3246 15.0679 21.3144 15.3765 21.2678 16.4034C21.2243 17.3532 21.0656 17.8688 20.9322 18.2118C20.7557 18.6665 20.5442 18.9902 20.2032 19.331C19.8623 19.672 19.5385 19.883 19.0837 20.0596C18.7407 20.1936 18.2247 20.3519 17.2749 20.3953C16.2479 20.442 15.9394 20.4521 13.3382 20.4521C10.7369 20.4521 10.4285 20.442 9.4016 20.3953C8.45175 20.3515 7.93619 20.1928 7.59249 20.0594C7.13793 19.8828 6.81313 19.6718 6.47215 19.3308C6.13118 18.9898 5.92017 18.6659 5.74315 18.211C5.60978 17.868 5.45089 17.3525 5.40763 16.4026C5.36097 15.3756 5.35162 15.0672 5.35162 12.4655C5.35162 9.86401 5.36097 9.55714 5.40763 8.53013C5.45108 7.58027 5.60978 7.06472 5.74315 6.72131C5.91978 6.26665 6.13118 5.94194 6.47225 5.60097C6.81322 5.26 7.13793 5.04889 7.59259 4.87197C7.936 4.73802 8.45175 4.57971 9.4016 4.53606C10.3003 4.49544 10.6486 4.48326 12.4642 4.48121V4.48365ZM18.5385 6.10123C17.8931 6.10123 17.3695 6.62438 17.3695 7.26989C17.3695 7.9153 17.8931 8.43894 18.5385 8.43894C19.1839 8.43894 19.7076 7.9153 19.7076 7.26989C19.7076 6.62448 19.1839 6.10084 18.5385 6.10084V6.10123ZM13.3382 7.46717C10.5753 7.46717 8.33523 9.70726 8.33523 12.4702C8.33523 15.2332 10.5753 17.4722 13.3382 17.4722C16.1011 17.4722 18.3405 15.2332 18.3405 12.4702C18.3405 9.70736 16.1009 7.46717 13.338 7.46717H13.3382ZM13.3382 9.22279C15.1316 9.22279 16.5856 10.6766 16.5856 12.4702C16.5856 14.2636 15.1316 15.7176 13.3382 15.7176C11.5447 15.7176 10.0909 14.2636 10.0909 12.4702C10.0909 10.6766 11.5447 9.22279 13.3382 9.22279Z" fill="white"/>
</svg>
