<svg width="182" height="45" viewBox="0 0 182 45" fill="none" xmlns="http://www.w3.org/2000/svg">
<g clip-path="url(#clip0_1_3)">
<path d="M43.9855 4.15888C42.8945 1.79907 40.5734 0.140187 37.8345 0C37.7184 0 37.6023 0 37.4863 0H7.1723C6.68486 0 6.19742 0.046729 5.7332 0.140187C4.08519 0.490654 2.62288 1.40187 1.60158 2.68692C1.04451 3.41121 0.603495 4.22897 0.324959 5.11682C0.116057 5.79439 0 6.49533 0 7.24299V37.7804C0 38.528 0.116057 39.2523 0.324959 39.9299C0.69634 41.1449 1.36947 42.2196 2.27471 43.0607C2.97105 43.715 3.78345 44.229 4.68869 44.5561C5.47787 44.8364 6.31348 45 7.19551 45H37.5095C38.2523 45 38.9718 44.8832 39.5985 44.6495C40.7359 44.2991 41.7572 43.6682 42.5696 42.8505C43.2427 42.1729 43.7766 41.3551 44.1479 40.4439C44.4729 39.6028 44.6586 38.6916 44.6586 37.7336V7.21963C44.6586 6.1215 44.4265 5.09346 43.9855 4.15888ZM15.8998 26.9393L8.49535 18.8318L15.8998 10.7243H18.7548L11.9306 18.8318L18.8708 26.9393H15.8998ZM12.4645 18.8318L19.2886 10.7243H23.7452L16.2944 18.8318L23.7452 26.9393H19.4047L12.4645 18.8318ZM22.1436 34.5093H22.1204L29.4552 26.4953L29.548 26.4019L22.2132 18.4112L22.1204 18.2944H26.4377L26.5538 18.4112L33.3779 26.4019L26.577 34.5093H22.1436ZM37.2542 26.4953L29.9426 34.5093H27.0876L33.9118 26.4019L27.0644 18.4112L26.9716 18.2944H29.9426L37.347 26.4019L37.2542 26.4953Z" fill="url(#paint0_linear_1_3)"/>
<path d="M51.9005 4.97665H59.6763V6.33179H56.4499V16.0748H55.0573V6.33179H51.9005V4.97665Z" fill="#3F3F3F"/>
<path d="M60.8833 4.18225H62.276V8.94861C63.1116 8.41122 63.9008 7.8972 65.131 7.8972C66.779 7.8972 67.5682 9.15889 67.5682 10.5374V16.0748H66.1755V10.5374C66.1755 9.60281 65.6648 9.18225 64.9453 9.18225C63.8311 9.18225 63.2741 9.46262 62.276 10V16.0981H60.8833V4.18225Z" fill="#3F3F3F"/>
<path d="M72.3033 7.96729C74.2994 7.96729 75.46 8.1542 75.46 10.8411C75.46 12.0794 74.7869 12.757 73.3478 12.757H70.191C70.191 14.5327 70.5856 14.8832 71.7462 14.8832C73.0924 14.8832 74.1602 14.9065 75.2743 14.7196V15.7243C74.0673 16.0981 72.6746 16.1449 71.4212 16.1449C69.3786 16.1449 68.7983 15.0935 68.7983 12.0093C68.7983 8.43458 69.8196 7.96729 72.3033 7.96729ZM73.1853 11.4953C73.7888 11.4953 74.0673 11.2617 74.0673 10.7944C74.0673 9.34579 73.812 9.2056 72.3497 9.2056C70.7945 9.2056 70.191 9.22897 70.191 11.4953H73.1853Z" fill="#3F3F3F"/>
<path d="M52.4808 21.3318H57.3087V28.9252H58.3532L62.2527 21.3318H68.102L62.833 31.0514L68.102 40.6542H62.2527L58.3532 33.271H57.3319V40.6542H52.4808V21.3318Z" fill="#3F75E1"/>
<path d="M74.0441 26.4953C78.9185 26.4953 80.5665 28.271 80.5665 33.8318C80.5665 39.0421 79.0345 40.771 74.0441 40.771C69.1465 40.771 67.5217 38.8318 67.5217 33.8318C67.4985 28.1075 69.2161 26.4953 74.0441 26.4953ZM74.0441 36.986C75.4832 36.986 75.4832 36.7757 75.4832 33.8551C75.4832 30.8178 75.5064 30.3271 74.0441 30.3271C72.4889 30.3271 72.605 30.8645 72.605 33.8551C72.605 36.6122 72.6978 36.986 74.0441 36.986Z" fill="#3F75E1"/>
<path d="M86.555 26.4252C87.7388 26.4252 89.0851 26.7056 90.0135 27.2196V19.9299H95.0968V40.6542H90.7331L89.9671 39.3692C88.9458 40.2336 88.087 40.8178 86.5318 40.8178C83.3983 40.8178 82.0288 39.0187 82.0288 33.7149C82.0288 28.5047 82.7716 26.4252 86.555 26.4252ZM88.2727 36.6589C89.0851 36.6589 89.7118 36.5187 89.9671 36.0748V30.4673C89.7118 30.1869 88.9226 30.0701 88.2727 30.0701C87.5299 30.0701 87.1121 30.4439 87.1121 33.4346C87.1353 36.3318 87.5299 36.6589 88.2727 36.6589Z" fill="#3F75E1"/>
<path d="M102.78 26.5187C107.422 26.5187 109.163 27.1028 109.163 31.7523C109.163 34.6262 107.561 35.4906 105.054 35.4906H101.805C101.805 37.3832 103.035 36.986 104.985 36.986C106.865 36.986 106.958 36.986 108.931 36.7056V40.0233C107.097 40.8645 103.499 40.771 101.317 40.771C97.7661 40.771 96.7216 38.4112 96.7216 33.5514C96.6984 27.7336 98.2767 26.5187 102.78 26.5187ZM103.314 32.2663C103.755 32.2663 104.08 31.9159 104.08 31.4252C104.08 30.4673 104.056 30.0701 103.151 30.0701C102.06 30.0701 101.735 30.257 101.782 32.2663H103.314Z" fill="#3F75E1"/>
<path d="M110.625 26.6355H115.151L115.732 28.4112C116.173 27.4533 117.356 26.5187 118.749 26.5187C119.213 26.5187 119.561 26.5187 119.979 26.6589V31.5654H117.913C116.869 31.5654 115.732 31.5654 115.732 33.1542V40.6776H110.648L110.625 26.6355Z" fill="#3F75E1"/>
<path d="M121.326 30.514C121.326 28.3411 122.254 26.4953 124.947 26.4953C128.707 26.4953 132.026 26.4252 132.862 27.4533V30.4673H126.989C126.641 30.4673 126.409 30.4673 126.409 30.9346V31.0981C126.409 31.5187 126.664 31.5187 126.989 31.5187H129.612C132.583 31.5187 133.558 33.2243 133.558 35.3271V36.8925C133.558 39.7664 131.817 40.7944 130.146 40.7944C126.386 40.7944 122.858 40.9112 121.906 39.8131V36.7991H127.987C128.428 36.7991 128.451 36.6122 128.451 36.3551V36.215C128.451 35.8879 128.405 35.7477 127.987 35.7477H125.457C122.997 35.7477 121.302 34.4626 121.302 31.729V30.514H121.326Z" fill="#3F75E1"/>
<path d="M143.075 21.3318H144.56V37.3364C144.56 39.0888 145.628 39.1589 146.626 39.1589H154.378V40.6542H146.649C144.908 40.6542 143.075 40.3037 143.075 37.3364V21.3318Z" fill="#3F3F3F"/>
<path d="M156.514 35.7243C156.514 33.5514 157.837 32.2196 159.996 32.2196C159.996 32.2196 166.007 32.243 166.007 32.2196C166.007 32.2196 166.031 30.4673 166.007 30.4439C166.007 28.7617 165.195 27.8271 163.408 27.8271C161.528 27.8271 159.439 27.9907 156.955 28.2477V27.1729C158.696 26.7056 160.854 26.4019 163.477 26.3785C165.659 26.3551 167.493 27.5467 167.493 30.4439V40.6542H166.402L166.007 38.972C165.961 38.972 162.433 40.8178 159.996 40.8178C158.069 40.8178 156.514 39.5794 156.514 37.3365V35.7243ZM159.996 39.2991C162.085 39.3224 166.007 37.8738 166.007 37.8738V33.3411L159.996 33.715C158.533 33.8318 157.999 34.7196 157.999 35.8178V37.1963C157.999 38.8084 158.974 39.2991 159.996 39.2991Z" fill="#3F3F3F"/>
<path d="M170.696 19.9299H172.135V27.4766C173.806 26.7991 176.127 26.4252 177.311 26.4252C181.28 26.4252 182 30.1168 182 33.7149C182 36.9392 181.118 40.8178 177.311 40.8178C175.524 40.8178 172.855 39.6495 172.158 39.1121L171.741 40.6776H170.696V19.9299ZM177.311 39.2991C179.191 39.2991 180.514 37.5234 180.514 33.6916C180.514 29.0187 179.168 27.8972 177.311 27.8972C175.292 27.8972 173.969 28.1308 172.158 28.6215V37.9907C173.597 38.6449 175.245 39.2991 177.311 39.2991Z" fill="#3F3F3F"/>
</g>
<defs>
<linearGradient id="paint0_linear_1_3" x1="-8.62022" y1="-26.8641" x2="63.9047" y2="87.3067" gradientUnits="userSpaceOnUse">
<stop stop-color="#3D76E0"/>
<stop offset="0.1402" stop-color="#3980E2"/>
<stop offset="0.3805" stop-color="#2E9CE7"/>
<stop offset="0.5" stop-color="#28ACEA"/>
<stop offset="0.8416" stop-color="#13D6ED"/>
<stop offset="1" stop-color="#09EBEE"/>
</linearGradient>
<clipPath id="clip0_1_3">
<rect width="182" height="45" fill="white"/>
</clipPath>
</defs>
</svg>
