<svg width="31" height="30" viewBox="0 0 31 30" fill="none" xmlns="http://www.w3.org/2000/svg">
<path d="M30.2515 2.77259C29.5012 1.19938 27.9048 0.0934579 26.0211 0C25.9412 0 25.8614 0 25.7816 0H4.93283C4.59758 0 4.26234 0.0311527 3.94307 0.0934579C2.80964 0.327103 1.80391 0.934579 1.1015 1.79128C0.718373 2.27414 0.41506 2.81931 0.223494 3.41121C0.0798192 3.86293 0 4.33022 0 4.82866V25.1869C0 25.6854 0.0798192 26.1682 0.223494 26.6199C0.478915 27.4299 0.941866 28.1464 1.56446 28.7072C2.04337 29.1433 2.60211 29.486 3.22469 29.7041C3.76747 29.891 4.34216 30 4.94879 30H25.7976C26.3084 30 26.8033 29.9221 27.2343 29.7664C28.0165 29.5327 28.7189 29.1121 29.2777 28.567C29.7406 28.1153 30.1078 27.5701 30.3632 26.9626C30.5867 26.4019 30.7144 25.7944 30.7144 25.1558V4.81308C30.7144 4.081 30.5548 3.39564 30.2515 2.77259ZM10.9352 17.9595L5.84276 12.5545L10.9352 7.14953H12.8988L8.20541 12.5545L12.9786 17.9595H10.9352ZM8.57258 12.5545L13.2659 7.14953H16.331L11.2066 12.5545L16.331 17.9595H13.3458L8.57258 12.5545ZM15.2295 23.0062H15.2135L20.2581 17.6636L20.322 17.6012L15.2774 12.2741L15.2135 12.1963H18.1828L18.2626 12.2741L22.956 17.6012L18.2786 23.0062H15.2295ZM25.622 17.6636L20.5933 23.0062H18.6298L23.3232 17.6012L18.6138 12.2741L18.55 12.1963H20.5933L25.6858 17.6012L25.622 17.6636Z" fill="url(#paint0_linear_1_1276)"/>
<defs>
<linearGradient id="paint0_linear_1_1276" x1="-5.92865" y1="-17.9094" x2="41.7666" y2="59.5496" gradientUnits="userSpaceOnUse">
<stop stop-color="#3D76E0"/>
<stop offset="0.1402" stop-color="#3980E2"/>
<stop offset="0.3805" stop-color="#2E9CE7"/>
<stop offset="0.5" stop-color="#28ACEA"/>
<stop offset="0.8416" stop-color="#13D6ED"/>
<stop offset="1" stop-color="#09EBEE"/>
</linearGradient>
</defs>
</svg>
