<svg width="33" height="25" viewBox="0 0 33 25" fill="none" xmlns="http://www.w3.org/2000/svg">
<path d="M33 2.94118C31.7854 3.45588 30.4761 3.79412 29.1195 3.95588C30.5076 3.17647 31.5803 1.94118 32.0851 0.455882C30.7758 1.19118 29.3246 1.70588 27.7945 2C26.5483 0.735294 24.7973 0 22.8098 0C19.1028 0 16.0741 2.82353 16.0741 6.30882C16.0741 6.80882 16.1372 7.29412 16.2476 7.75C10.6319 7.48529 5.63145 4.97059 2.30306 1.16176C1.71941 2.08824 1.38815 3.17647 1.38815 4.32353C1.38815 6.51471 2.57122 8.45588 4.40105 9.55882C3.28107 9.55882 2.23996 9.26471 1.32505 8.82353V8.86765C1.32505 11.9265 3.65966 14.4853 6.75143 15.0588C5.7588 15.3121 4.71669 15.3473 3.70698 15.1618C4.13542 16.4154 4.97451 17.5124 6.10629 18.2984C7.23807 19.0845 8.60563 19.5201 10.0167 19.5441C7.62475 21.3095 4.65975 22.2637 1.60899 22.25C1.07266 22.25 0.536329 22.2206 0 22.1618C2.99713 23.9559 6.56214 25 10.3795 25C22.8098 25 29.6401 15.3824 29.6401 7.04412C29.6401 6.76471 29.6401 6.5 29.6243 6.22059C30.9493 5.33823 32.0851 4.22059 33 2.94118Z" fill="#3F75E1"/>
</svg>
