<svg width="28" height="32" viewBox="0 0 28 32" fill="none" xmlns="http://www.w3.org/2000/svg">
<path d="M12.8 32C8.2963 32 3.79259 30.9728 0.711111 29.2346L0 28.9185L4.10864 20.0691L4.89877 20.5432C7.11111 21.8864 9.87654 22.5975 12.484 22.5975C13.9852 22.5975 15.5654 22.2025 15.5654 21.0963C15.5654 20.7802 15.5654 19.8321 12.8 19.8321H8.05926V12.563L11.3778 9.24444H1.73827V0H25.521V7.26914L20.7012 12.1679C24.8099 13.5901 27.1802 16.7506 27.1802 21.0173C27.1802 26.5481 22.6765 32 12.8 32ZM2.05432 28.2074C4.89877 29.6296 8.84938 30.4198 12.8 30.4198C22.2815 30.4198 25.6 25.363 25.6 21.0173C25.6 17.1457 23.2296 14.3802 19.042 13.3531L17.6988 13.037L23.9407 6.63704V1.58025H3.31852V7.58519H15.0123L9.56049 13.1951V18.1728H12.721C16.2765 18.1728 17.0667 19.6741 17.0667 21.0173C17.0667 22.9136 15.2494 24.0988 12.4049 24.0988C9.79753 24.0988 7.11111 23.3877 4.74074 22.2025L2.05432 28.2074Z" fill="#3F75E1"/>
</svg>
