<svg width="28" height="32" viewBox="0 0 28 32" fill="none" xmlns="http://www.w3.org/2000/svg">
<path d="M27.4963 32H2.05432V24.7309L13.037 14.5383C14.9333 12.721 15.0914 11.7728 15.0914 11.0617C15.0914 10.6667 15.0914 9.48148 12.958 9.48148C11.3778 9.48148 10.0346 10.3506 9.24444 11.7728L8.9284 12.484L0 8.05926L0.395062 7.34815C2.84444 2.60741 7.74321 0 13.9852 0C21.6494 0 26.7852 4.02963 26.7852 10.1136C26.7852 13.3531 25.916 16.1185 21.4123 20.1481L18.6469 22.6765H27.4173V32H27.4963ZM3.63457 30.4198H25.916V24.1778H14.6173L20.3852 18.963C24.4148 15.3284 25.2049 12.958 25.2049 10.0346C25.2049 4.97778 20.7012 1.58025 13.9852 1.58025C8.69136 1.58025 4.5037 3.63457 2.21235 7.34815L8.37531 10.4296C9.40247 8.84938 11.1407 7.90123 13.037 7.90123C15.3284 7.90123 16.7506 9.08642 16.7506 11.0617C16.7506 12.2469 16.4346 13.5901 14.1432 15.7235L3.63457 25.442V30.4198Z" fill="#3F75E1"/>
</svg>
