<svg width="51" height="50" viewBox="0 0 51 50" fill="none" xmlns="http://www.w3.org/2000/svg">
<path d="M38.0192 23.3743V7.38466C38.0192 7.22721 37.9641 7.07763 37.846 6.95953L31.0597 0.173201C30.9416 0.0551094 30.792 0 30.6346 0H2.97751C1.43445 0 0.174805 1.25964 0.174805 2.80271V42.2296C0.174805 43.7805 1.43445 45.0401 2.98539 45.0401H26.6037C26.6195 45.0401 26.6431 45.0323 26.6588 45.0323C29.1073 48.0554 32.839 50 37.0273 50C44.3804 50 50.3716 44.0167 50.3716 36.6556C50.3638 29.641 44.9079 23.886 38.0192 23.3743ZM31.2329 2.00756L36.0117 6.78633H32.9964C32.0281 6.78633 31.2408 5.99905 31.2408 5.0307V2.00756H31.2329ZM14.9992 6.59739H25.5566C25.8794 6.59739 26.1471 6.86506 26.1471 7.18784C26.1471 7.51063 25.8794 7.7783 25.5566 7.7783H14.9992C14.6765 7.7783 14.4088 7.51063 14.4088 7.18784C14.4088 6.86506 14.6765 6.59739 14.9992 6.59739ZM14.9992 10.9353H32.6421C32.9649 10.9353 33.2326 11.203 33.2326 11.5257C33.2326 11.8485 32.9649 12.1162 32.6421 12.1162H14.9992C14.6765 12.1162 14.4088 11.8485 14.4088 11.5257C14.4088 11.203 14.6765 10.9353 14.9992 10.9353ZM14.9992 15.2732H32.6421C32.9649 15.2732 33.2326 15.5409 33.2326 15.8636C33.2326 16.1864 32.9649 16.4541 32.6421 16.4541H14.9992C14.6765 16.4541 14.4088 16.1864 14.4088 15.8636C14.4088 15.5409 14.6765 15.2732 14.9992 15.2732ZM7.74841 12.1083C6.20535 12.1083 4.95358 10.8566 4.95358 9.31349C4.95358 7.97512 5.89831 6.85719 7.15796 6.58951V6.16438C7.15796 5.8416 7.42563 5.57393 7.74841 5.57393C8.0712 5.57393 8.33887 5.8416 8.33887 6.16438V6.58951C9.59852 6.86506 10.5433 7.98299 10.5433 9.31349C10.5433 9.63628 10.2756 9.90395 9.95279 9.90395C9.63001 9.90395 9.36233 9.63628 9.36233 9.31349C9.36233 8.42387 8.63804 7.69957 7.74841 7.69957C6.85879 7.69957 6.1345 8.42387 6.1345 9.31349C6.1345 10.2031 6.85879 10.9274 7.74841 10.9274C9.29148 10.9274 10.5433 12.1792 10.5433 13.7222C10.5433 15.0606 9.59852 16.1786 8.33887 16.4462V16.895C8.33887 17.2178 8.0712 17.4854 7.74841 17.4854C7.42563 17.4854 7.15796 17.2178 7.15796 16.8871V16.4384C5.89831 16.1628 4.95358 15.0527 4.95358 13.7144C4.95358 13.3916 5.22125 13.1239 5.54404 13.1239C5.86682 13.1239 6.1345 13.3916 6.1345 13.7144C6.1345 14.604 6.85879 15.3283 7.74841 15.3283C8.63804 15.3283 9.36233 14.604 9.36233 13.7144C9.36233 12.8248 8.63804 12.1083 7.74841 12.1083ZM19.101 38.2617H5.54404C5.22125 38.2617 4.95358 37.994 4.95358 37.6712C4.95358 37.3484 5.22125 37.0808 5.54404 37.0808H19.101C19.4237 37.0808 19.6914 37.3484 19.6914 37.6712C19.6914 37.994 19.4316 38.2617 19.101 38.2617ZM19.8882 33.5144H5.54404C5.22125 33.5144 4.95358 33.2467 4.95358 32.9239C4.95358 32.6012 5.22125 32.3335 5.54404 32.3335H19.8882C20.211 32.3335 20.4787 32.6012 20.4787 32.9239C20.4787 33.2467 20.2189 33.5144 19.8882 33.5144ZM21.4628 28.775H5.54404C5.22125 28.775 4.95358 28.5073 4.95358 28.1845C4.95358 27.8618 5.22125 27.5941 5.54404 27.5941H21.4628C21.7856 27.5941 22.0532 27.8618 22.0532 28.1845C22.0532 28.5073 21.7934 28.775 21.4628 28.775ZM23.8246 24.0356H5.54404C5.22125 24.0356 4.95358 23.7679 4.95358 23.4451C4.95358 23.1223 5.22125 22.8547 5.54404 22.8547H23.8246C24.1474 22.8547 24.4151 23.1223 24.4151 23.4451C24.4151 23.7679 24.1553 24.0356 23.8246 24.0356ZM37.0194 48.8112C30.3197 48.8112 24.8638 43.3554 24.8638 36.6478C24.8638 29.948 30.3118 24.4922 37.0194 24.4922C43.727 24.4922 49.1828 29.9402 49.1828 36.6478C49.1828 43.3554 43.727 48.8112 37.0194 48.8112Z" fill="#1E1E1E"/>
<path d="M37.019 26.6493C31.5002 26.6493 27.0127 31.1368 27.0127 36.6556C27.0127 42.1823 31.5002 46.6698 37.019 46.6698C42.5457 46.6698 47.0332 42.1744 47.0332 36.6556C47.0332 31.1368 42.5378 26.6493 37.019 26.6493ZM41.4907 41.1667C41.3726 41.2848 41.2231 41.3399 41.0735 41.3399C40.9239 41.3399 40.7743 41.2848 40.6562 41.1667L38.0267 38.5372C37.7197 38.7025 37.3811 38.797 37.0111 38.797C35.8381 38.797 34.8776 37.8365 34.8776 36.6477C34.8776 35.6637 35.5547 34.837 36.46 34.593V32.4201C36.46 32.0973 36.7277 31.8296 37.0505 31.8296C37.3733 31.8296 37.6409 32.0973 37.6409 32.4201V34.6323C38.5306 34.9157 39.1604 35.7188 39.1604 36.6477C39.1604 37.0256 39.0502 37.3878 38.8691 37.7106L41.4907 40.3322C41.7269 40.5605 41.7269 40.9384 41.4907 41.1667Z" fill="#1E1E1E"/>
<path d="M37.0358 35.6951C36.4847 35.6951 36.0596 36.1203 36.0596 36.6477C36.0596 37.1831 36.4847 37.6161 37.0122 37.6161C37.2641 37.6161 37.4924 37.5216 37.6814 37.3405C37.8782 37.1595 37.9805 36.9075 37.9805 36.6477C37.9805 36.136 37.5633 35.7109 37.0358 35.6951Z" fill="#1E1E1E"/>
</svg>
