<svg width="71" height="50" viewBox="0 0 71 50" fill="none" xmlns="http://www.w3.org/2000/svg">
<path d="M65.6676 8.79283C65.6268 8.79283 65.5939 8.80259 65.5531 8.80614V39.7488C65.5531 40.9393 65.0493 41.5868 64.2686 42.3719L63.7843 42.7933C62.938 43.44 62.074 43.8374 60.9465 43.8374H8.52467C7.09734 43.8374 6.23242 43.6706 6.23242 44.4699V45.0979C6.23242 47.7042 8.57967 50 11.1717 50H65.8663C68.4584 50 70.8056 48.0963 70.8056 45.49V13.3347C70.8056 12.1984 70.4366 11.0567 69.6408 10.1873C68.8416 9.3242 67.4329 8.81589 66.1342 8.81589C65.9683 8.79815 65.8122 8.78839 65.6676 8.79283Z" fill="#1E1E1E"/>
<path d="M4.97673 0C2.68449 0 1.55699 0.531368 3.74722 2.23636L31.1876 23.5594L58.6325 2.23724C60.8227 0.531367 59.6961 0.000886604 57.4038 0.000886604L4.97673 0Z" fill="#1E1E1E"/>
<path d="M0.850769 4.48154C0.361094 4.44429 0.174805 4.87896 0.174805 5.32694V36.2004C0.174805 38.7552 2.43423 40.6775 4.97574 40.6775H57.402C59.9391 40.6775 62.2029 38.7552 62.2029 36.2004V5.32694C62.2029 4.87896 62.014 4.44429 61.5269 4.48154C61.3664 4.49574 61.1677 4.5605 60.9353 4.69445L32.2174 27.0057C31.9114 27.2408 31.5521 27.357 31.1866 27.357C30.8256 27.357 30.461 27.2408 30.1612 27.0057L1.44246 4.69445C1.20561 4.56138 1.01133 4.49574 0.850769 4.48154Z" fill="#1E1E1E"/>
</svg>
