<svg width="57" height="50" viewBox="0 0 57 50" fill="none" xmlns="http://www.w3.org/2000/svg">
<path d="M11.3811 49.0704H14.0839L8.08572 49.9839C7.70976 50.0407 7.32661 49.9461 7.02025 49.7209C6.7139 49.4957 6.50934 49.1582 6.45143 48.7824L0.0162269 6.6421C-0.0407743 6.26612 0.0537124 5.88288 0.278952 5.57649C0.504192 5.27009 0.841785 5.06557 1.21765 5.00781L8.24074 3.93458V45.9294C8.24153 46.7621 8.57262 47.5605 9.16137 48.1494C9.75012 48.7382 10.5484 49.0695 11.3811 49.0704ZM45.7245 37.6852C46.2573 37.8174 46.8001 37.9057 47.3474 37.9494V45.9294C47.3469 46.3343 47.1859 46.7224 46.8997 47.0086C46.6134 47.2949 46.2253 47.4559 45.8204 47.4564H11.3811C10.9762 47.4561 10.5879 47.2951 10.3015 47.0089C10.0151 46.7226 9.85404 46.3344 9.85356 45.9294V1.52756C9.85404 1.12257 10.0151 0.734307 10.3015 0.447936C10.5879 0.161565 10.9761 0.000473396 11.3811 0H45.8187C46.2236 0.00047367 46.6118 0.161584 46.8981 0.447972C47.1844 0.73436 47.3453 1.12263 47.3456 1.52756V17.9706C46.7981 18.0136 46.2551 18.1015 45.7221 18.2336C45.5475 18.2773 45.3926 18.3781 45.2819 18.5199C45.1712 18.6617 45.111 18.8365 45.1109 19.0164V20.9304C44.5696 21.1637 44.0573 21.4594 43.5846 21.8116L41.9282 20.8576C41.7725 20.7676 41.5911 20.7322 41.4129 20.7572C41.2347 20.7821 41.07 20.866 40.945 20.9953C40.4694 21.4875 40.0452 22.0269 39.6792 22.6052H15.3485C15.1384 22.6109 14.9389 22.6984 14.7923 22.849C14.6457 22.9996 14.5637 23.2014 14.5637 23.4116C14.5637 23.6218 14.6457 23.8236 14.7923 23.9742C14.9389 24.1248 15.1384 24.2123 15.3485 24.218H38.8534C38.7229 24.5399 38.6095 24.8685 38.5135 25.2024C38.4643 25.3753 38.4742 25.5596 38.5417 25.7262C38.6092 25.8928 38.7305 26.032 38.8862 26.1218L40.5437 27.0794C40.5437 27.102 40.5402 27.1247 40.5378 27.1473H15.3485C15.1384 27.153 14.9389 27.2405 14.7923 27.3911C14.6457 27.5417 14.5637 27.7436 14.5637 27.9537C14.5637 28.1639 14.6457 28.3658 14.7923 28.5164C14.9389 28.667 15.1384 28.7544 15.3485 28.7602H40.5384C40.5384 28.787 40.542 28.8132 40.5455 28.8395L38.8862 29.7976C38.7304 29.8875 38.6091 30.0268 38.5416 30.1935C38.4741 30.3602 38.4642 30.5447 38.5135 30.7176C38.6085 31.0475 38.7203 31.3723 38.8486 31.6907H15.3485C15.1443 31.7043 14.9529 31.795 14.8131 31.9445C14.6733 32.0939 14.5955 32.2909 14.5955 32.4956C14.5955 32.7002 14.6733 32.8973 14.8131 33.0467C14.9529 33.1962 15.1443 33.2869 15.3485 33.3005H39.675C40.0428 33.8836 40.4693 34.4274 40.948 34.9235C41.0731 35.0527 41.2378 35.1364 41.4159 35.1613C41.594 35.1863 41.7754 35.151 41.9312 35.0612L43.5875 34.1072C44.06 34.4589 44.5716 34.7546 45.1121 34.9885V36.9024C45.1119 37.0823 45.1719 37.2571 45.2826 37.399C45.3932 37.5408 45.5481 37.6416 45.7227 37.6852H45.7245ZM14.5424 9.73777C14.5424 9.95156 14.6273 10.1566 14.7785 10.3078C14.9297 10.459 15.1347 10.5439 15.3485 10.5439H23.7894C23.8997 10.5512 24.0102 10.5359 24.1142 10.4987C24.2183 10.4616 24.3136 10.4035 24.3943 10.3281C24.4749 10.2526 24.5392 10.1614 24.5832 10.06C24.6272 9.9587 24.6498 9.84942 24.6498 9.73896C24.6498 9.6285 24.6272 9.51921 24.5832 9.41788C24.5392 9.31654 24.4749 9.22531 24.3943 9.14985C24.3136 9.07439 24.2183 9.01629 24.1142 8.97917C24.0102 8.94205 23.8997 8.92668 23.7894 8.93404H15.3485C15.1351 8.93404 14.9304 9.01864 14.7793 9.1693C14.6282 9.31996 14.543 9.52438 14.5424 9.73777ZM14.5424 13.7576C14.5423 13.8635 14.5631 13.9684 14.6036 14.0663C14.644 14.1641 14.7034 14.2531 14.7783 14.328C14.8531 14.4029 14.942 14.4623 15.0399 14.5029C15.1377 14.5434 15.2426 14.5643 15.3485 14.5643H29.3708C29.481 14.5717 29.5916 14.5563 29.6956 14.5192C29.7997 14.4821 29.895 14.424 29.9756 14.3485C30.0563 14.273 30.1206 14.1818 30.1646 14.0805C30.2085 13.9791 30.2312 13.8699 30.2312 13.7594C30.2312 13.6489 30.2085 13.5396 30.1646 13.4383C30.1206 13.337 30.0563 13.2457 29.9756 13.1703C29.895 13.0948 29.7997 13.0367 29.6956 12.9996C29.5916 12.9625 29.481 12.9471 29.3708 12.9545H15.3485C15.1354 12.9545 14.931 13.0388 14.78 13.1891C14.6289 13.3394 14.5435 13.5433 14.5424 13.7564V13.7576ZM14.5424 18.8692C14.5423 18.9751 14.5631 19.08 14.6036 19.1778C14.644 19.2757 14.7034 19.3646 14.7783 19.4395C14.8531 19.5145 14.942 19.5739 15.0399 19.6144C15.1377 19.655 15.2426 19.6759 15.3485 19.6759H41.8507C41.9584 19.6788 42.0657 19.6601 42.1661 19.6209C42.2665 19.5817 42.358 19.5228 42.4352 19.4476C42.5125 19.3724 42.5739 19.2825 42.6158 19.1832C42.6577 19.0839 42.6793 18.9772 42.6793 18.8695C42.6793 18.7617 42.6577 18.655 42.6158 18.5557C42.5739 18.4564 42.5125 18.3665 42.4352 18.2913C42.358 18.2162 42.2665 18.1572 42.1661 18.118C42.0657 18.0788 41.9584 18.0601 41.8507 18.063H15.3485C15.1349 18.063 14.9301 18.1478 14.7789 18.2987C14.6278 18.4496 14.5427 18.6544 14.5424 18.868V18.8692ZM42.6574 37.0401C42.6574 36.8262 42.5724 36.621 42.4211 36.4697C42.2698 36.3184 42.0646 36.2334 41.8507 36.2334H15.3485C15.1384 36.2391 14.9389 36.3266 14.7923 36.4772C14.6457 36.6278 14.5637 36.8297 14.5637 37.0398C14.5637 37.25 14.6457 37.4518 14.7923 37.6024C14.9389 37.7531 15.1384 37.8405 15.3485 37.8462H41.8507C41.9566 37.8463 42.0615 37.8255 42.1594 37.785C42.2572 37.7446 42.3462 37.6852 42.4211 37.6103C42.496 37.5355 42.5554 37.4466 42.596 37.3487C42.6365 37.2509 42.6574 37.146 42.6574 37.0401ZM56.0459 30.8673C55.7129 31.7669 55.229 32.6033 54.615 33.3405L53.0469 32.4348C52.9014 32.3509 52.7334 32.3145 52.5663 32.3305C52.3992 32.3466 52.2412 32.4143 52.1143 32.5242C51.5314 33.0326 50.8555 33.4234 50.1241 33.6749C49.9655 33.7298 49.8279 33.8327 49.7306 33.9694C49.6332 34.1061 49.5809 34.2697 49.5809 34.4375V36.2483C48.6354 36.4099 47.6693 36.4099 46.7238 36.2483V34.4375C46.7237 34.2696 46.6713 34.1059 46.5739 33.9692C46.4764 33.8326 46.3387 33.7297 46.18 33.6749C45.4488 33.4227 44.7731 33.032 44.1897 32.5242C44.063 32.4141 43.9052 32.3464 43.7381 32.3303C43.571 32.3143 43.4031 32.3508 43.2578 32.4348L41.6891 33.3405C41.0751 32.6033 40.5912 31.767 40.2581 30.8673L41.828 29.961C41.9732 29.8771 42.0887 29.7501 42.1583 29.5977C42.228 29.4452 42.2484 29.2748 42.2168 29.1101C42.0705 28.3502 42.0705 27.5693 42.2168 26.8093C42.2484 26.6445 42.2279 26.4741 42.1583 26.3215C42.0886 26.1689 41.9732 26.0418 41.828 25.9578L40.2581 25.0515C40.5912 24.152 41.0751 23.3159 41.6891 22.579L43.2578 23.484C43.4031 23.5682 43.571 23.6048 43.7381 23.5887C43.9052 23.5727 44.0631 23.5048 44.1897 23.3946C44.7732 22.8865 45.4491 22.4958 46.1806 22.2439C46.3391 22.1892 46.4767 22.0863 46.5741 21.9498C46.6714 21.8132 46.7237 21.6496 46.7238 21.4819V19.6705C47.6693 19.5095 48.6353 19.5095 49.5809 19.6705V21.4837C49.5809 21.6514 49.6333 21.815 49.7306 21.9515C49.828 22.0881 49.9655 22.1909 50.1241 22.2457C50.8553 22.4978 51.5311 22.8885 52.1143 23.3964C52.2411 23.5066 52.3991 23.5744 52.5663 23.5905C52.7335 23.6065 52.9015 23.5699 53.0469 23.4858L54.615 22.5801C55.2288 23.3167 55.7127 24.1525 56.0459 25.0515L54.476 25.9554C54.3308 26.0393 54.2152 26.1664 54.1456 26.319C54.0759 26.4716 54.0555 26.6422 54.0873 26.8069C54.2336 27.5669 54.2336 28.3478 54.0873 29.1078C54.0555 29.2724 54.0758 29.4429 54.1455 29.5954C54.2152 29.7479 54.3307 29.8749 54.476 29.9586L56.0459 30.8673ZM51.7661 27.9594C51.7661 27.2445 51.5541 26.5457 51.157 25.9513C50.7598 25.3569 50.1953 24.8936 49.5348 24.6201C48.8743 24.3465 48.1475 24.275 47.4464 24.4145C46.7453 24.554 46.1012 24.8983 45.5958 25.4039C45.0903 25.9094 44.7461 26.5535 44.6067 27.2546C44.4673 27.9558 44.539 28.6826 44.8126 29.343C45.0863 30.0034 45.5497 30.5679 46.1441 30.965C46.7386 31.362 47.4375 31.5739 48.1523 31.5738C49.1105 31.5727 50.0292 31.1915 50.7067 30.5139C51.3842 29.8363 51.7652 28.9176 51.7661 27.9594ZM48.1523 25.9584C47.7564 25.9583 47.3694 26.0756 47.0401 26.2955C46.7109 26.5154 46.4542 26.828 46.3026 27.1938C46.1511 27.5595 46.1114 27.962 46.1886 28.3503C46.2658 28.7387 46.4565 29.0954 46.7364 29.3753C47.0164 29.6553 47.3731 29.8459 47.7614 29.9231C48.1497 30.0004 48.5522 29.9607 48.918 29.8091C49.2837 29.6575 49.5963 29.4009 49.8162 29.0716C50.0361 28.7424 50.1534 28.3553 50.1533 27.9594C50.1527 27.4289 49.9417 26.9203 49.5665 26.5452C49.1914 26.1701 48.6828 25.9591 48.1523 25.9584Z" fill="#FAFAFA"/>
</svg>
