<svg width="43" height="16" viewBox="0 0 43 16" fill="none" xmlns="http://www.w3.org/2000/svg">
<path d="M1.1748 7C0.62252 7 0.174805 7.44772 0.174805 8C0.174805 8.55228 0.62252 9 1.1748 9L1.1748 7ZM41.8819 8.70711C42.2724 8.31659 42.2724 7.68342 41.8819 7.2929L35.518 0.928935C35.1274 0.538411 34.4943 0.538411 34.1037 0.928935C33.7132 1.31946 33.7132 1.95262 34.1037 2.34315L39.7606 8L34.1037 13.6569C33.7132 14.0474 33.7132 14.6805 34.1037 15.0711C34.4943 15.4616 35.1274 15.4616 35.518 15.0711L41.8819 8.70711ZM1.1748 9L41.1748 9L41.1748 7L1.1748 7L1.1748 9Z" fill="#1E1E1E"/>
</svg>
