<svg width="112" height="111" viewBox="0 0 112 111" fill="none" xmlns="http://www.w3.org/2000/svg">
<g opacity="0.08">
<path d="M84.0146 51.8909V16.394C84.0146 16.0444 83.8923 15.7123 83.6301 15.4502L68.5645 0.384506C68.3023 0.122343 67.9702 0 67.6207 0H6.22201C2.79641 0 0 2.79641 0 6.22201V93.7496C0 97.1927 2.79641 99.9891 6.23949 99.9891H58.6722C58.7071 99.9891 58.7596 99.9717 58.7945 99.9717C64.23 106.683 72.5144 111 81.8125 111C98.1365 111 111.437 97.7171 111.437 81.3755C111.419 65.803 99.3075 53.0269 84.0146 51.8909ZM68.949 4.45678L79.5579 15.0657H72.864C70.7142 15.0657 68.9665 13.3179 68.9665 11.1682V4.45678H68.949ZM32.9102 14.6462H56.3477C57.0642 14.6462 57.6585 15.2404 57.6585 15.957C57.6585 16.6736 57.0642 17.2678 56.3477 17.2678H32.9102C32.1937 17.2678 31.5994 16.6736 31.5994 15.957C31.5994 15.2404 32.1937 14.6462 32.9102 14.6462ZM32.9102 24.2763H72.0775C72.794 24.2763 73.3883 24.8706 73.3883 25.5872C73.3883 26.3037 72.794 26.898 72.0775 26.898H32.9102C32.1937 26.898 31.5994 26.3037 31.5994 25.5872C31.5994 24.8706 32.1937 24.2763 32.9102 24.2763ZM32.9102 33.9065H72.0775C72.794 33.9065 73.3883 34.5007 73.3883 35.2173C73.3883 35.9339 72.794 36.5281 72.0775 36.5281H32.9102C32.1937 36.5281 31.5994 35.9339 31.5994 35.2173C31.5994 34.5007 32.1937 33.9065 32.9102 33.9065ZM16.8134 26.8805C13.3878 26.8805 10.6089 24.1016 10.6089 20.676C10.6089 17.7048 12.7062 15.223 15.5026 14.6287V13.6849C15.5026 12.9684 16.0968 12.3741 16.8134 12.3741C17.53 12.3741 18.1242 12.9684 18.1242 13.6849V14.6287C20.9206 15.2404 23.0179 17.7222 23.0179 20.676C23.0179 21.3925 22.4237 21.9868 21.7071 21.9868C20.9906 21.9868 20.3963 21.3925 20.3963 20.676C20.3963 18.701 18.7884 17.0931 16.8134 17.0931C14.8384 17.0931 13.2305 18.701 13.2305 20.676C13.2305 22.6509 14.8384 24.2589 16.8134 24.2589C20.239 24.2589 23.0179 27.0378 23.0179 30.4634C23.0179 33.4346 20.9206 35.9164 18.1242 36.5106V37.5068C18.1242 38.2234 17.53 38.8177 16.8134 38.8177C16.0968 38.8177 15.5026 38.2234 15.5026 37.4894V36.4931C12.7062 35.8814 10.6089 33.4171 10.6089 30.4459C10.6089 29.7293 11.2031 29.1351 11.9197 29.1351C12.6363 29.1351 13.2305 29.7293 13.2305 30.4459C13.2305 32.4209 14.8384 34.0288 16.8134 34.0288C18.7884 34.0288 20.3963 32.4209 20.3963 30.4459C20.3963 28.4709 18.7884 26.8805 16.8134 26.8805ZM42.0161 84.9409H11.9197C11.2031 84.9409 10.6089 84.3467 10.6089 83.6301C10.6089 82.9136 11.2031 82.3193 11.9197 82.3193H42.0161C42.7326 82.3193 43.3269 82.9136 43.3269 83.6301C43.3269 84.3467 42.7501 84.9409 42.0161 84.9409ZM43.7638 74.402H11.9197C11.2031 74.402 10.6089 73.8077 10.6089 73.0912C10.6089 72.3746 11.2031 71.7803 11.9197 71.7803H43.7638C44.4804 71.7803 45.0746 72.3746 45.0746 73.0912C45.0746 73.8077 44.4979 74.402 43.7638 74.402ZM47.2593 63.8805H11.9197C11.2031 63.8805 10.6089 63.2863 10.6089 62.5697C10.6089 61.8531 11.2031 61.2589 11.9197 61.2589H47.2593C47.9759 61.2589 48.5701 61.8531 48.5701 62.5697C48.5701 63.2863 47.9934 63.8805 47.2593 63.8805ZM52.5026 53.359H11.9197C11.2031 53.359 10.6089 52.7648 10.6089 52.0482C10.6089 51.3316 11.2031 50.7374 11.9197 50.7374H52.5026C53.2192 50.7374 53.8134 51.3316 53.8134 52.0482C53.8134 52.7648 53.2367 53.359 52.5026 53.359ZM81.795 108.361C66.9216 108.361 54.8096 96.2489 54.8096 81.3581C54.8096 66.4846 66.9041 54.3727 81.795 54.3727C96.6859 54.3727 108.798 66.4672 108.798 81.3581C108.798 96.2489 96.6859 108.361 81.795 108.361Z" fill="#FAFAFA"/>
<path d="M81.7941 59.1615C69.5423 59.1615 59.5801 69.1237 59.5801 81.3755C59.5801 93.6447 69.5423 103.607 81.7941 103.607C94.0633 103.607 104.026 93.6273 104.026 81.3755C104.026 69.1237 94.0458 59.1615 81.7941 59.1615ZM91.7213 91.3901C91.4591 91.6523 91.1271 91.7746 90.795 91.7746C90.4629 91.7746 90.1309 91.6523 89.8687 91.3901L84.0312 85.5526C83.3496 85.9196 82.598 86.1294 81.7766 86.1294C79.1724 86.1294 77.0402 83.9971 77.0402 81.358C77.0402 79.1733 78.5432 77.3382 80.5532 76.7964V71.9726C80.5532 71.256 81.1474 70.6617 81.864 70.6617C82.5805 70.6617 83.1748 71.256 83.1748 71.9726V76.8837C85.1497 77.5129 86.548 79.2956 86.548 81.358C86.548 82.1969 86.3033 83.0009 85.9013 83.7175L91.7213 89.5375C92.2456 90.0443 92.2456 90.8833 91.7213 91.3901Z" fill="#FAFAFA"/>
<path d="M81.8313 79.2432C80.6079 79.2432 79.6641 80.187 79.6641 81.358C79.6641 82.5465 80.6078 83.5077 81.7788 83.5077C82.3381 83.5077 82.845 83.298 83.2644 82.896C83.7014 82.494 83.9286 81.9348 83.9286 81.358C83.9286 80.222 83.0023 79.2782 81.8313 79.2432Z" fill="#FAFAFA"/>
</g>
</svg>
