<svg width="117" height="112" viewBox="0 0 117 112" fill="none" xmlns="http://www.w3.org/2000/svg">
<path d="M47.0441 95.1337C43.5336 90.2145 41.3372 86.4535 39.2715 86.802C35.2164 87.4772 35.1728 91.1838 29.3098 90.4324C23.4395 89.6663 16.992 75.5152 15.2277 70.6796C13.4706 65.8367 9.30655 50.8542 13.3217 46.4905C17.3296 42.1377 19.7402 44.944 23.2834 42.8674C25.0841 41.8037 24.3544 37.5163 23.8788 31.4899C23.4032 25.4635 23.7082 23.347 19.0214 22.2905C14.3419 21.2414 5.629 21.0707 1.89336 30.1829C-0.502675 36.0169 -1.90762 52.8581 5.82867 74.103C13.5577 95.3406 25.4544 107.335 31.0415 110.265C39.7616 114.839 46.3289 109.111 49.2369 105.302C52.1484 101.48 50.5547 100.053 47.0441 95.1337Z" fill="#FAFAFA" fill-opacity="0.08"/>
<path d="M106.044 59.8574C106.519 59.2185 106.893 58.496 107.108 57.6792L115.984 24.5667C116.154 23.935 116.191 23.3034 116.169 22.6862L87.8848 30.1793L106.044 59.8574Z" fill="#FAFAFA" fill-opacity="0.08"/>
<path d="M76.5981 29.8453L115.276 19.5932C114.445 18.2245 113.112 17.1536 111.439 16.7071L53.0008 1.04207C51.3199 0.595535 49.6318 0.856921 48.2305 1.63745L76.5981 29.8453Z" fill="#FAFAFA" fill-opacity="0.08"/>
<path d="M84.6434 31.0433L75.6402 33.4248L69.0329 26.8502L37.2891 44.1126C38.124 45.2598 39.3184 46.1674 40.8069 46.5667L99.2411 62.2317C100.722 62.6201 102.211 62.4459 103.518 61.8614L84.6434 31.0433Z" fill="#FAFAFA" fill-opacity="0.08"/>
<path d="M45.9116 3.86283C45.5776 4.38923 45.3017 4.9483 45.1238 5.58725L36.2549 38.6997C36.0407 39.5093 36.0007 40.3225 36.0915 41.1103L66.6591 24.4905L45.9116 3.86283Z" fill="#FAFAFA" fill-opacity="0.08"/>
<path d="M87.5374 105.222C83.6929 106.831 80.5962 107.328 76.08 107.328C65.8061 107.328 56.5088 99.962 56.5088 87.7495C56.5088 75.1849 65.9259 64.2248 79.9137 64.2248C90.881 64.2248 98.9295 71.7179 98.9295 82.1842C98.9295 91.104 93.9087 96.9198 86.8549 96.9198C83.7546 96.9198 81.7797 95.4314 81.2751 92.4036H81.0972C79.2965 95.3116 76.6355 96.9198 73.4734 96.9198C69.324 96.9198 66.4124 93.8267 66.4124 88.6789C66.4124 81.1858 71.7999 74.4406 80.8503 74.4406C83.6384 74.4406 87.0401 75.1849 88.4668 76.0489L86.7932 87.6334C86.3031 90.7264 86.6081 92.2076 88.22 92.2693C90.6378 92.3964 93.8579 89.3614 93.8579 82.2423C93.8579 74.5568 88.7754 68.4215 79.2385 68.4215C70.0137 68.4215 61.7728 75.5479 61.7728 87.0707C61.7728 97.4716 68.3401 103.044 77.5721 103.044C80.5418 103.044 83.9543 102.427 86.4229 101.251L87.5374 105.222ZM81.1553 80.202C80.7233 80.0822 80.2259 80.0169 79.7358 80.0169C76.2616 80.0169 73.6041 83.5492 73.6041 87.7532C73.6041 89.9241 74.4682 91.1621 76.1418 91.1621C77.9352 91.1621 79.9137 88.9911 80.4183 85.5241L81.1553 80.202Z" fill="#FAFAFA" fill-opacity="0.08"/>
</svg>
