<svg width="166" height="25" viewBox="0 0 166 25" fill="none" xmlns="http://www.w3.org/2000/svg">
<path d="M25 12.5313C25 5.61404 19.4 0 12.5 0C5.6 0 0 5.61404 0 12.5313C0 18.5965 4.3 23.6466 10 24.812V16.2907H7.5V12.5313H10V9.3985C10 6.97995 11.9625 5.01253 14.375 5.01253H17.5V8.77193H15C14.3125 8.77193 13.75 9.33584 13.75 10.0251V12.5313H17.5V16.2907H13.75V25C20.0625 24.3734 25 19.0351 25 12.5313Z" fill="#1877F2"/>
<g clip-path="url(#clip0_442_320)">
<path d="M43.338 24.5523H38.4172V12.4814H35.0654V8.55128H38.4172V5.75477C38.4172 2.44085 39.8997 0.064209 44.8069 0.064209C45.8448 0.064209 47.4743 0.270037 47.4743 0.270037V3.9194H45.7627C44.0189 3.9194 43.338 4.44134 43.338 5.88444V8.55128H47.4089L47.0464 12.4814H43.338V24.5523Z" fill="#1877F2"/>
<path d="M54.6283 8.23734C54.5568 8.23734 54.4829 8.23987 54.4099 8.24169C49.8472 8.24169 47.7598 11.6191 47.7598 16.4133C47.7598 22.4528 50.4676 24.87 54.4456 24.87C56.7215 24.87 58.2168 23.9273 59.1256 22.168V24.5542H63.8057V8.55311H59.1256V11.0138C58.3836 9.43061 56.8465 8.25601 54.6283 8.23734ZM55.8184 12.0183C57.7348 12.0183 58.8849 13.3338 58.8849 15.5711L58.8894 17.8564C58.8894 19.3643 57.9394 21.1285 55.8184 21.1285C52.5576 21.1285 52.6449 17.6638 52.6449 16.5098C52.6449 12.6281 54.3821 12.0183 55.8184 12.0183Z" fill="#1877F2"/>
<path d="M65.6954 16.5544C65.6954 14.61 65.6007 8.24768 74.024 8.24768C77.4052 8.24768 78.817 9.30573 78.817 9.30573L77.6822 12.7693C77.6822 12.7693 76.2722 12.0053 74.4349 12.0053C72.0816 12.0053 70.5801 13.3477 70.5801 15.7097L70.5828 17.4034C70.5828 19.6731 72.0314 21.1881 74.4397 21.1881C76.1135 21.1881 77.6563 20.4168 77.6563 20.4168L78.7882 23.8082C78.7882 23.8082 77.4972 24.8727 74.0475 24.8727C66.0274 24.8727 65.6954 19.1645 65.6954 16.5544Z" fill="#1877F2"/>
<path d="M106.259 8.24165C110.822 8.24165 112.942 11.619 112.942 16.4132C112.942 22.4527 110.234 24.8699 106.256 24.8699C103.98 24.8699 102.298 23.9273 101.389 22.168V24.5541L96.7676 24.5523V0.550719L101.674 0.129639V10.797C102.382 8.93073 104.709 8.24165 106.259 8.24165ZM104.883 12.0182C102.967 12.0182 101.674 13.3337 101.674 15.5711L101.67 17.8563C101.667 19.3643 102.565 21.1285 104.883 21.1285C108.144 21.1285 108.057 17.6637 108.057 16.5097C108.057 12.628 106.32 12.0182 104.883 12.0182Z" fill="#1877F2"/>
<path d="M87.3309 8.25476C82.1559 8.25476 79.4238 11.0314 79.4238 15.9658V16.8825C79.4238 23.2868 83.2605 24.9357 87.8346 24.9357C92.2806 24.9357 94.2931 23.7119 94.2931 23.7119L93.3749 20.4529C93.3749 20.4529 91.0077 21.4442 88.4229 21.4442C85.7434 21.4442 84.5909 20.772 84.2956 18.2379H94.6853V15.6237C94.6853 10.2712 91.6191 8.25476 87.3309 8.25476ZM87.4557 11.5181C89.247 11.5181 90.4077 12.5991 90.344 15.1061H84.3045C84.4093 12.4674 85.661 11.5181 87.4557 11.5181Z" fill="#1877F2"/>
<path d="M122.725 8.23291C117.411 8.23291 114.613 11.18 114.613 16.4615C114.613 23.7079 119.436 24.8743 122.734 24.8743C127.563 24.8743 130.775 22.3162 130.775 16.5273C130.775 10.502 127.163 8.23291 122.725 8.23291ZM122.659 12.0314C124.995 12.0314 125.921 13.7524 125.921 15.7115V17.3958C125.921 19.7691 124.626 21.1416 122.65 21.1416C120.802 21.1416 119.503 19.8577 119.503 17.3958V15.7115C119.503 13.0859 121.048 12.0314 122.659 12.0314Z" fill="#1877F2"/>
<path d="M140.55 8.23291C135.235 8.23291 132.438 11.18 132.438 16.4615C132.438 23.7079 137.26 24.8743 140.559 24.8743C145.387 24.8743 148.599 22.3162 148.599 16.5273C148.599 10.502 144.987 8.23291 140.55 8.23291ZM140.483 12.0314C142.82 12.0314 143.745 13.7524 143.745 15.7115V17.3958C143.745 19.7691 142.45 21.1416 140.474 21.1416C138.626 21.1416 137.327 19.8577 137.327 17.3958V15.7115C137.327 13.0859 138.873 12.0314 140.483 12.0314Z" fill="#1877F2"/>
<path d="M150.453 24.5523V0.550719L155.374 0.129639V16.217L160.256 8.55124H165.453L160.36 16.4907L165.649 24.5523H160.437L155.374 16.7246V24.5523H150.453Z" fill="#1877F2"/>
</g>
<defs>
<clipPath id="clip0_442_320">
<rect width="130.714" height="25" fill="white" transform="translate(35)"/>
</clipPath>
</defs>
</svg>
