<svg width="168" height="25" viewBox="0 0 168 25" fill="none" xmlns="http://www.w3.org/2000/svg">
<path d="M33 2.94118C31.7854 3.45588 30.4761 3.79412 29.1195 3.95588C30.5076 3.17647 31.5803 1.94118 32.0851 0.455882C30.7758 1.19118 29.3246 1.70588 27.7945 2C26.5483 0.735294 24.7973 0 22.8098 0C19.1028 0 16.0741 2.82353 16.0741 6.30882C16.0741 6.80882 16.1372 7.29412 16.2476 7.75C10.6319 7.48529 5.63145 4.97059 2.30306 1.16176C1.71941 2.08824 1.38815 3.17647 1.38815 4.32353C1.38815 6.51471 2.57122 8.45588 4.40105 9.55882C3.28107 9.55882 2.23996 9.26471 1.32505 8.82353V8.86765C1.32505 11.9265 3.65966 14.4853 6.75143 15.0588C5.7588 15.3121 4.71669 15.3473 3.70698 15.1618C4.13542 16.4154 4.97451 17.5124 6.10629 18.2984C7.23807 19.0845 8.60563 19.5201 10.0167 19.5441C7.62475 21.3095 4.65975 22.2637 1.60899 22.25C1.07266 22.25 0.536329 22.2206 0 22.1618C2.99713 23.9559 6.56214 25 10.3795 25C22.8098 25 29.6401 15.3824 29.6401 7.04412C29.6401 6.76471 29.6401 6.5 29.6243 6.22059C30.9493 5.33823 32.0851 4.22059 33 2.94118Z" fill="#2FCDFF"/>
<g clip-path="url(#clip0_442_314)">
<path d="M49.7349 24.737C47.3007 24.0812 45.0668 22.2319 43.924 19.9264C43.0481 18.1595 43.0492 18.1719 43.0472 10.0513C42.9434 3.02686 42.9831 2.8002 43.4513 2.12274C44.4459 0.464157 46.6391 0.109968 48.0771 1.37571C49.0867 2.26438 49.1669 2.56616 49.1669 5.47388V7.99551H53.4084C56.0028 7.99551 57.8969 8.04849 58.2861 8.13195C60.4995 8.60665 61.3398 11.2537 59.803 12.9105C59.6219 13.1057 59.2488 13.3868 58.974 13.5351C58.4916 13.7954 58.3126 13.8061 53.8206 13.843L49.1669 13.8812V15.0057C49.1669 16.6413 49.3366 17.1764 50.0957 17.9356C50.9823 18.8222 51.2189 18.8639 55.3751 18.8672C58.5994 18.8696 58.8894 18.8883 59.4112 19.1244C61.3907 20.0205 61.8839 22.4063 60.4242 24.0253C59.571 24.9717 59.5147 24.9812 54.7888 24.9758C51.1001 24.9716 50.5006 24.9432 49.7349 24.737ZM68.6227 24.7906C66.7007 24.325 64.7172 22.8647 63.5048 21.023C62.3876 19.3258 62.1698 18.1317 62.164 13.6713C62.1591 9.82468 62.2363 9.34024 62.9763 8.57832C63.6613 7.87305 64.0977 7.69024 65.1053 7.68649C65.8748 7.68344 66.0691 7.73227 66.6012 8.06127C66.9799 8.29539 67.3567 8.6721 67.5909 9.0505C68.0595 9.86278 67.9736 10.2035 68.0314 13.5447C68.0926 17.3475 68.0999 17.4375 68.3868 17.8989C69.3559 19.4576 71.3597 19.6873 72.6889 18.392C73.4562 17.6443 73.5284 17.2049 73.5284 13.2774C73.5284 10.0479 73.5429 9.83051 73.7923 9.33353C74.292 8.33789 75.0164 7.81087 76.0872 7.6641C77.2331 7.50704 78.4688 8.1825 79.0608 9.28947C79.3247 9.78284 79.3405 9.98533 79.4001 13.6269C79.3788 16.6564 79.5213 17.543 79.8072 17.9672C80.7214 19.3475 82.6431 19.6444 83.8431 18.5908C84.7032 17.8356 84.7027 17.8382 84.7735 13.6174C84.8342 9.99438 84.8509 9.78156 85.1128 9.28947C86.2117 7.22405 88.9937 7.09386 90.2033 9.05125C90.9857 10.1359 90.6432 12.4312 90.6432 13.9114C90.7 15.8591 90.5857 18.3566 90.2451 19.1264C89.3186 21.7415 87.2549 23.8187 84.7721 24.635C83.6459 25.0053 81.1641 25.0942 80.0459 24.8042C78.9678 24.5247 78.0349 24.0966 77.1471 23.4738L76.4018 22.951L75.6566 23.4737C74.7554 24.1058 73.8432 24.534 72.8462 24.7928C71.9169 25.034 69.6222 25.0328 68.6227 24.7906ZM94.5694 24.8089C94.0003 24.561 93.2895 23.8918 92.9789 23.3113C92.7074 22.8039 92.7052 22.7479 92.7052 16.3659C92.7052 10.2245 92.7163 9.90947 92.9503 9.43759C93.9232 7.47564 96.4352 7.03406 97.9584 8.55727C98.9057 9.50458 98.9031 9.48115 98.8625 16.5677C98.8274 22.6842 98.8218 22.809 98.5566 23.2995C98.2077 23.9448 97.5741 24.5479 96.9881 24.7923C96.4213 25.0287 95.0951 25.0378 94.5694 24.8089ZM107.68 24.7385C104.902 24.0105 102.485 21.8165 101.464 19.098C100.913 17.631 100.869 16.8836 100.911 9.61962C100.95 2.91956 100.955 2.80293 101.22 2.31119C102.543 -0.141061 106.165 0.169367 106.951 2.80235C107.083 3.24657 107.135 4.05365 107.135 5.69546V7.97248L110.102 8.0177C112.845 8.0595 113.106 8.08305 113.569 8.3301C115.74 9.49112 115.75 12.3717 113.586 13.5278C113.101 13.787 112.882 13.8069 110.092 13.8458L107.114 13.8873L107.156 15.3452C107.204 17.0466 107.398 17.5565 108.242 18.2036C108.981 18.7703 109.447 18.8628 111.57 18.865C113.273 18.8666 113.501 18.8937 114.075 19.161C116.475 20.2783 116.472 23.6615 114.071 24.7523C113.329 25.0894 108.982 25.0801 107.68 24.7385ZM123.585 24.7445C120.439 23.884 117.856 21.2411 117.041 18.049C116.841 17.2643 116.819 16.4722 116.818 10.0569C116.865 3.39784 116.535 3.65823 117.158 2.28775C117.876 0.925912 119.358 0.325848 120.928 0.761516C121.582 0.943146 122.682 2.04375 122.864 2.69788C122.94 2.97016 123 4.24845 123 5.59066L123.001 7.99557H125.545C128.459 7.99557 129.232 8.1035 129.934 8.60791C131.455 9.70005 131.489 12.1473 130 13.2262C129.257 13.7645 128.554 13.8673 125.618 13.8673H123.001V14.9988C123.001 16.4891 123.172 17.1157 123.762 17.7858C124.566 18.6994 124.864 18.7864 127.446 18.8614C129.694 18.9266 129.708 18.9289 130.32 19.3063C131.019 19.7383 131.667 20.6934 131.793 21.4792C131.974 22.6165 131.379 23.8971 130.351 24.5777L129.829 24.9236L127.133 24.9507C124.832 24.9738 124.313 24.9437 123.585 24.7445ZM139.179 24.801C137.353 24.3079 136.007 23.4973 134.69 22.097C133.09 20.3961 132.368 18.5213 132.373 16.0767C132.376 14.5833 132.631 13.4159 133.226 12.1807C133.855 10.876 134.544 10.0252 135.559 9.30083C138.515 7.19153 143.769 7.05972 147.078 9.01185C148.263 9.71063 149.495 11.0331 150.095 12.2505C151.309 14.7121 151.187 16.9418 149.798 17.6666C149.318 17.9174 149.094 17.9289 144.02 17.9627L138.742 17.9978V18.3256C138.742 18.8365 139.556 19.529 140.451 19.7802C141.061 19.9515 141.798 19.989 144.56 19.9896C146.428 19.9896 148.125 20.0461 148.376 20.1158C150.527 20.7132 150.958 23.5615 149.066 24.6705C148.453 25.0848 148.083 24.9807 144.166 24.9779C140.918 24.9718 139.644 24.9266 139.179 24.801ZM144.672 13.7111C144.436 12.9229 143.762 12.4562 142.529 12.2283C141.217 11.9858 139.384 12.5283 139.03 13.2635C138.874 13.5872 138.725 13.9557 138.725 13.9557C138.725 13.9557 139.817 13.9922 141.753 13.9922H144.756L144.672 13.7111ZM154.099 24.7456C153.456 24.3958 152.77 23.5833 152.607 22.9768C152.511 22.6223 152.48 21.2352 152.512 18.6909C152.558 14.9849 152.563 14.914 152.9 13.903C153.787 11.2398 156.159 9.031 158.918 8.29884C159.933 8.02968 164.615 7.90071 165.636 8.1138C167.054 8.40969 167.976 9.50415 167.976 10.8926C167.976 12.0768 167.438 12.9932 166.43 13.5258C165.955 13.7766 165.683 13.8033 162.979 13.8639C160.175 13.9268 160.021 13.9429 159.572 14.2227C158.978 14.5919 158.545 15.1613 158.369 15.8037C158.287 16.1051 158.232 17.5949 158.232 19.5583C158.231 22.8124 158.231 22.8134 157.906 23.465C157.687 23.905 157.393 24.2474 157.001 24.5189C156.491 24.8721 156.305 24.9253 155.483 24.9547C154.746 24.981 154.45 24.9362 154.099 24.7456ZM94.4161 5.79799C92.4328 4.8097 92.0724 2.19949 93.7194 0.753361C94.361 0.190014 94.8772 0 95.766 0C97.0087 0 97.9741 0.580648 98.5323 1.66387C99.8669 4.25398 97.0318 7.10146 94.4161 5.79799Z" fill="#2FCDFF"/>
</g>
<defs>
<clipPath id="clip0_442_314">
<rect width="124.976" height="25" fill="white" transform="translate(43)"/>
</clipPath>
</defs>
</svg>
