<svg width="93" height="25" viewBox="0 0 93 25" fill="none" xmlns="http://www.w3.org/2000/svg">
<g style="mix-blend-mode:luminosity">
<path d="M90.3024 16.4875C90.2471 16.7637 90.1513 16.9967 90.0201 17.2038C89.8889 17.411 89.7181 17.575 89.4971 17.7061C89.2831 17.8304 89.0155 17.8986 88.6979 17.8986C88.3872 17.8986 88.1196 17.8365 87.9065 17.7061C87.6855 17.5767 87.5138 17.4101 87.3757 17.2038C87.2445 16.9967 87.1487 16.7637 87.0865 16.4875C87.0244 16.2113 86.9968 15.9368 86.9968 15.6546C86.996 15.3703 87.0238 15.0867 87.0796 14.8079C87.1349 14.5317 87.2307 14.2901 87.3618 14.0847C87.4913 13.8706 87.6639 13.7049 87.8849 13.5685C88.0989 13.4373 88.3682 13.3683 88.6841 13.3683C88.9948 13.3683 89.2555 13.4373 89.4609 13.5685C89.6663 13.6997 89.8536 13.8792 89.9917 14.0916C90.1298 14.3039 90.2247 14.5524 90.2877 14.8217C90.3484 15.0952 90.3785 15.3745 90.3775 15.6546C90.3774 15.9343 90.3497 16.2133 90.2946 16.4875H90.3024ZM92.1347 14.2633C92.0035 13.8016 91.811 13.4028 91.5495 13.0515C91.2813 12.7045 90.9405 12.4203 90.5509 12.2187C90.1513 12.0115 89.6706 11.9019 89.1113 11.9019C88.6711 11.9019 88.2707 11.9917 87.9065 12.1634C87.5422 12.3352 87.2384 12.6183 87.0037 12.9963H86.9761V12.0944H85.1291V21.647H87.071V18.2913H87.0986C87.3274 18.6283 87.6408 18.8992 88.0074 19.0767C88.3856 19.2575 88.8001 19.3494 89.2192 19.3451C89.737 19.3451 90.1902 19.2416 90.5829 19.0431C90.9618 18.8489 91.2933 18.5737 91.5538 18.2369C91.8153 17.9003 92.0087 17.5137 92.1321 17.0718C92.2633 16.6316 92.3246 16.1768 92.3246 15.7012C92.3246 15.1989 92.2624 14.7173 92.1321 14.2547L92.1347 14.2633ZM82.5545 16.4875C82.4993 16.7637 82.4035 16.9967 82.2723 17.2038C82.1411 17.411 81.9702 17.575 81.7492 17.7061C81.5361 17.8304 81.2659 17.8986 80.9509 17.8986C80.6402 17.8986 80.3795 17.8365 80.1586 17.7061C79.9456 17.5815 79.764 17.4096 79.6278 17.2038C79.4983 16.9967 79.4008 16.7637 79.3387 16.4875C79.2765 16.2113 79.2489 15.9368 79.2489 15.6546C79.2482 15.3703 79.2759 15.0867 79.3317 14.8079C79.387 14.5317 79.4828 14.2901 79.614 14.0847C79.7448 13.8735 79.9241 13.6965 80.137 13.5685C80.3502 13.4373 80.6186 13.3683 80.9354 13.3683C81.2461 13.3683 81.5067 13.4373 81.7121 13.5685C81.9175 13.6997 82.1048 13.8792 82.2421 14.0916C82.3793 14.3039 82.4751 14.5524 82.5381 14.8217C82.5985 15.0952 82.6283 15.3745 82.627 15.6546C82.627 15.9343 82.5993 16.2133 82.5441 16.4875H82.5545ZM83.8008 13.0507C83.5393 12.7054 83.2018 12.4241 82.8022 12.2178C82.4026 12.0115 81.9219 11.9011 81.3626 11.9011C80.9224 11.9011 80.5228 11.9908 80.1577 12.1626C79.7926 12.3343 79.4897 12.6174 79.2558 12.9954H79.2282V12.0944H77.3812V21.647H79.3231V18.2913H79.3507C79.5795 18.6283 79.893 18.8992 80.2596 19.0767C80.6307 19.2554 81.0303 19.3443 81.4713 19.3443C81.9944 19.3443 82.4423 19.2407 82.835 19.0422C83.2199 18.8437 83.5444 18.5735 83.806 18.2361C84.0675 17.8986 84.2608 17.5128 84.3929 17.0709C84.5163 16.6307 84.5853 16.1759 84.5853 15.7003C84.5883 15.2116 84.5235 14.7248 84.3929 14.2538C84.2617 13.7929 84.0692 13.3933 83.7999 13.0421V13.049L83.8008 13.0507ZM71.0272 15.3922L72.3011 11.8044H72.3287L73.5612 15.3922H71.0272ZM71.2343 9.39381L67.536 19.1665H69.6808L70.4455 16.9915H74.1023L74.8394 19.1665H77.0705L73.4136 9.39381H71.2093H71.2343ZM67.3781 16.0671C67.2469 15.8471 67.082 15.6529 66.8602 15.5027C66.6531 15.3517 66.4114 15.2351 66.1439 15.1376L65.317 14.9046L64.5109 14.7251C64.2732 14.6772 64.0386 14.6149 63.8084 14.5386C63.6012 14.4696 63.4373 14.3807 63.313 14.2711C63.1818 14.1606 63.1205 14.0234 63.1205 13.8439C63.1205 13.6989 63.155 13.5823 63.2301 13.4926C63.3052 13.4028 63.3958 13.3415 63.4977 13.2941C63.5995 13.2466 63.7178 13.2181 63.8489 13.2043L64.2071 13.1836C64.5524 13.1836 64.8544 13.2526 65.1099 13.3821C65.3654 13.5116 65.5095 13.7679 65.5302 14.1399H67.3772C67.3427 13.6997 67.2262 13.3407 67.0406 13.0524C66.8551 12.7641 66.6203 12.5363 66.3381 12.3637C66.0558 12.1911 65.7322 12.0676 65.374 11.9925C65.0158 11.9175 64.6438 11.8821 64.258 11.8821C63.8722 11.8821 63.5003 11.9166 63.136 11.9856C62.7893 12.0462 62.4559 12.1675 62.1513 12.3438C61.8552 12.5164 61.6205 12.7434 61.4487 13.0326C61.2692 13.3217 61.1812 13.7006 61.1812 14.1546C61.1812 14.4653 61.2433 14.7259 61.3736 14.9313C61.4979 15.1454 61.6697 15.324 61.8759 15.4682C62.0991 15.6129 62.3399 15.7286 62.5923 15.8125C62.8637 15.9028 63.1397 15.9785 63.4191 16.0395C64.1148 16.1845 64.6516 16.3287 65.0443 16.4737C65.4301 16.6187 65.6226 16.8387 65.6226 17.1279C65.6278 17.2821 65.5843 17.434 65.4983 17.562C65.4174 17.6763 65.3114 17.7705 65.1884 17.8373C65.0642 17.9064 64.9269 17.9547 64.7742 17.9884C64.6214 18.022 64.4781 18.0367 64.34 18.0367C64.1476 18.0367 63.9603 18.016 63.7894 17.9677C63.6107 17.9193 63.4528 17.8503 63.3147 17.7545C63.1766 17.6587 63.067 17.5344 62.9781 17.3833C62.8892 17.2323 62.8469 17.0528 62.8469 16.8465H60.9999C61.0206 17.3212 61.1242 17.7139 61.3236 18.0307C61.516 18.3474 61.7724 18.5951 62.0745 18.7884C62.3957 18.9881 62.7504 19.1282 63.1214 19.2019C63.5176 19.2852 63.9214 19.3268 64.3262 19.3261C64.7258 19.3261 65.1254 19.2847 65.5112 19.2088C65.897 19.1328 66.2414 18.9956 66.5443 18.8031C66.8473 18.6106 67.0881 18.3543 67.2745 18.0453C67.4601 17.7286 67.5567 17.3428 67.5567 16.875C67.5567 16.5444 67.4946 16.2691 67.3643 16.0482L67.3781 16.0671ZM59.3411 9.97207H57.3991V12.0935H56.221V13.3951H57.3991V17.5689C57.3991 17.9271 57.4613 18.2093 57.5778 18.4294C57.6943 18.6495 57.86 18.8152 58.0672 18.9386C58.2743 19.056 58.5073 19.1371 58.7766 19.1803C59.0459 19.2234 59.3342 19.2424 59.6397 19.2424L60.2318 19.2286C60.4141 19.2224 60.5957 19.204 60.7755 19.1734V17.6647C60.6804 17.6862 60.5837 17.7001 60.4864 17.7061L60.1696 17.7199C59.8391 17.7199 59.6259 17.6647 59.5154 17.5542C59.4049 17.4438 59.3497 17.2237 59.3497 16.9V13.3942H60.7755V12.0944H59.3324V9.97294L59.3411 9.97207ZM53.769 16.4322C53.769 16.5418 53.7552 16.6868 53.7345 16.8724C53.7138 17.0519 53.6516 17.2375 53.5481 17.4092C53.4445 17.5888 53.2935 17.7398 53.0794 17.871C52.8723 18.0005 52.5616 18.0635 52.1904 18.0635C52.0385 18.0635 51.8884 18.0496 51.7356 18.022C51.5906 17.9944 51.4594 17.9461 51.3498 17.877C51.2393 17.8076 51.1491 17.7102 51.0883 17.5948C51.0261 17.4774 50.9916 17.3333 50.9916 17.1546C50.9916 16.9682 51.0261 16.8241 51.0883 16.6998C51.1504 16.5824 51.2393 16.4857 51.3429 16.4037C51.4565 16.3229 51.582 16.2603 51.7149 16.2182C51.8567 16.1709 52.0018 16.134 52.149 16.1077L52.6177 16.0387L53.0665 15.9696C53.2019 15.9441 53.3354 15.9095 53.4661 15.8661C53.5904 15.8246 53.6931 15.7694 53.7768 15.6934V16.4167L53.769 16.4322ZM55.711 17.5974V13.912C55.711 13.4848 55.6143 13.1404 55.4218 12.8789C55.2294 12.6174 54.9816 12.4172 54.6847 12.273C54.3827 12.128 54.0513 12.0314 53.6862 11.977C53.3277 11.928 52.9665 11.9026 52.6047 11.9011C52.2114 11.9022 51.8192 11.9415 51.4335 12.0184C51.0477 12.0944 50.6965 12.2256 50.3866 12.4111C50.0813 12.5927 49.8201 12.8397 49.6219 13.1344C49.4234 13.4365 49.3052 13.8249 49.2767 14.2711H51.2186C51.2531 13.8853 51.3826 13.6169 51.6044 13.4512C51.8262 13.2854 52.1223 13.2034 52.5072 13.2034C52.6798 13.2034 52.8438 13.2173 52.9966 13.238C53.1493 13.2587 53.2788 13.307 53.3962 13.3761C53.5126 13.4455 53.6079 13.5455 53.6715 13.6652C53.7405 13.7895 53.7751 13.9543 53.7751 14.1675C53.782 14.366 53.7267 14.5188 53.5955 14.6293C53.4644 14.7328 53.2935 14.8157 53.0725 14.8709C52.8516 14.9262 52.6039 14.9676 52.3216 14.9952L51.4611 15.1057L50.5929 15.2912C50.3038 15.3672 50.0491 15.4837 49.8282 15.6425C49.6012 15.8005 49.4225 16.0076 49.2775 16.2622C49.1326 16.5237 49.0644 16.8543 49.0644 17.2547C49.0644 17.6198 49.1265 17.9452 49.2508 18.1981C49.3751 18.4657 49.5468 18.6814 49.7686 18.8523C49.9887 19.0249 50.2433 19.1544 50.5333 19.2381C50.8405 19.3228 51.158 19.3643 51.4767 19.3615C51.9169 19.3615 52.3449 19.2994 52.7644 19.1691C53.1839 19.0387 53.5412 18.8178 53.8605 18.501C53.8674 18.6184 53.8881 18.7341 53.9088 18.8523C53.9322 18.9664 53.9622 19.0791 53.9986 19.1898H55.9681C55.8784 19.0448 55.8093 18.8247 55.7757 18.5356C55.742 18.2464 55.7204 17.9366 55.7204 17.6207V17.5991L55.711 17.5974ZM47.6981 12.7072C47.5056 12.4595 47.2433 12.2584 46.9213 12.122C46.5908 11.977 46.1636 11.9088 45.6405 11.9088C45.2754 11.9088 44.9035 12.0055 44.5185 12.1911C44.1336 12.3766 43.8229 12.6804 43.5752 13.0861H43.5337V9.39294H41.5918V19.1656H43.5337V15.4544C43.5337 14.7311 43.6511 14.215 43.8919 13.8982C44.125 13.5815 44.5116 13.4296 45.0424 13.4296C45.5042 13.4296 45.8347 13.5746 46.0134 13.8628C46.192 14.1511 46.2896 14.5861 46.2896 15.1713V19.1656H48.2315V14.8304C48.2341 14.428 48.1947 14.0266 48.1141 13.6324C48.0382 13.2742 47.9009 12.9644 47.7085 12.7175L47.6981 12.7072ZM37.4292 16.1371H37.4016L35.7358 9.39294H33.7248L32.0306 16.0456H32.003L30.4538 9.39294H28.3047L30.8939 19.1656H33.0706L34.6958 12.513H34.7234L36.3762 19.1656H38.5115L39.6818 14.8269L41.1422 9.39294H39.0345L37.4292 16.1371Z" fill="#272525"/>
<path d="M12.5069 25C9.97117 25 7.6046 24.2362 5.62815 22.9355L0.82079 24.4718L2.37865 19.8284C0.881206 17.7691 0 15.2334 0 12.5C0 5.60744 5.60657 0 12.5 0C19.3934 0 24.9991 5.60744 24.9991 12.5C24.9991 19.3926 19.3926 25 12.4991 25H12.506H12.5069Z" fill="#FEFEFE"/>
<path d="M12.5073 0.00012207C5.61445 0.00012207 0.0078125 5.60697 0.0078125 12.4997C0.0078125 15.2331 0.889644 17.7685 2.38868 19.8262L0.830538 24.4708L5.63436 22.935C7.61081 24.243 9.9699 24.9998 12.5125 24.9998C19.4054 24.9998 25.0121 19.3928 25.0121 12.5003C25.0121 5.6078 19.4052 0.000743905 12.5125 0.000743905H12.5053L12.5073 0.00012207Z" fill="url(#paint0_linear_442_341)"/>
<path d="M9.01712 6.34967C8.77546 5.76882 8.59076 5.74724 8.22309 5.73257L7.80449 5.7179C7.32635 5.7179 6.82662 5.85771 6.52541 6.1667C6.15773 6.54127 5.24805 7.41558 5.24805 9.20906C5.24805 11.0025 6.55648 12.7365 6.73255 12.979C6.91638 13.2207 9.28295 16.9543 12.9571 18.4768C15.8311 19.6679 16.683 19.5557 17.3372 19.4262C18.2927 19.2208 19.4906 18.5148 19.7918 17.6629C20.093 16.8111 20.0939 16.0835 20.005 15.9368C19.9161 15.79 19.6744 15.6951 19.3059 15.5104L16.8151 14.328C16.4845 14.2028 16.1677 14.2477 15.9175 14.5999L14.9396 15.8928C14.7195 16.1275 14.3587 16.1577 14.0575 16.0326C13.6536 15.8634 12.5212 15.4664 11.1256 14.2244C10.045 13.2621 9.31057 12.0641 9.09739 11.7042C8.88421 11.3366 9.07581 11.1234 9.24411 10.9249C9.42795 10.697 9.60402 10.5365 9.78785 10.3224C9.97169 10.1084 10.0744 9.99878 10.1918 9.74935C10.3169 9.50768 10.2289 9.25739 10.14 9.07355C10.0511 8.88972 9.31747 7.08847 9.01539 6.36952L9.01712 6.34967Z" fill="#FEFEFE"/>
</g>
<defs>
<linearGradient id="paint0_linear_442_341" x1="-93.9502" y1="-41.879" x2="-93.9502" y2="-40.9619" gradientUnits="userSpaceOnUse">
<stop stop-color="#6EBF61"/>
<stop offset="0.231" stop-color="#50A557"/>
<stop offset="0.522" stop-color="#2A904F"/>
<stop offset="0.812" stop-color="#50A557"/>
<stop offset="1" stop-color="#6EBF63"/>
</linearGradient>
</defs>
</svg>
