<svg width="23" height="29" viewBox="0 0 23 29" fill="none" xmlns="http://www.w3.org/2000/svg">
<path d="M6.97266 11.8407C6.97266 10.6399 7.44964 9.48841 8.29867 8.63937C9.14771 7.79034 10.2992 7.31335 11.5 7.31335C12.7007 7.31335 13.8522 7.79034 14.7013 8.63937C15.5503 9.48841 16.0273 10.6399 16.0273 11.8407C16.0273 13.0414 15.5503 14.1929 14.7013 15.042C13.8522 15.891 12.7007 16.368 11.5 16.368C10.2992 16.368 9.14771 15.891 8.29867 15.042C7.44964 14.1929 6.97266 13.0414 6.97266 11.8407Z" fill="white"/>
<path fill-rule="evenodd" clip-rule="evenodd" d="M0.0409677 10.2763C0.272052 7.47574 1.54771 4.86446 3.61473 2.9608C5.68174 1.05713 8.38898 0.00027109 11.199 0H11.8008C14.6109 0.00027109 17.3181 1.05713 19.3851 2.9608C21.4522 4.86446 22.7278 7.47574 22.9589 10.2763C23.2171 13.4029 22.2517 16.5077 20.2662 18.9367L13.5895 27.1026C13.3364 27.4123 13.0176 27.6619 12.6563 27.8333C12.2949 28.0047 11.8999 28.0936 11.4999 28.0936C11.1 28.0936 10.705 28.0047 10.3436 27.8333C9.98223 27.6619 9.66347 27.4123 9.41041 27.1026L2.73507 18.9367C0.749047 16.5079 -0.216802 13.4031 0.0409677 10.2763ZM11.4999 5.22382C9.74504 5.22382 8.06202 5.92095 6.82113 7.16185C5.58023 8.40274 4.8831 10.0858 4.8831 11.8407C4.8831 13.5955 5.58023 15.2786 6.82113 16.5195C8.06202 17.7604 9.74504 18.4575 11.4999 18.4575C13.2548 18.4575 14.9378 17.7604 16.1787 16.5195C17.4196 15.2786 18.1168 13.5955 18.1168 11.8407C18.1168 10.0858 17.4196 8.40274 16.1787 7.16185C14.9378 5.92095 13.2548 5.22382 11.4999 5.22382Z" fill="white"/>
</svg>
