<svg width="30" height="20" viewBox="0 0 30 20" fill="none" xmlns="http://www.w3.org/2000/svg">
<path d="M2.32254 0C1.2139 0 0.668582 0.256997 1.72789 1.08162L14.9995 11.3945L28.2732 1.08205C29.3325 0.256997 28.7877 0.000428808 27.679 0.000428808L2.32254 0Z" fill="#FAFAFA"/>
<path d="M0.326931 2.16749C0.0900991 2.14947 0 2.3597 0 2.57637V17.5084C0 18.744 1.09277 19.6737 2.32198 19.6737H27.678C28.9051 19.6737 30 18.744 30 17.5084V2.57637C30 2.3597 29.9086 2.14947 29.6731 2.16749C29.5954 2.17436 29.4993 2.20568 29.3869 2.27046L15.4975 13.0613C15.3495 13.175 15.1757 13.2312 14.9989 13.2312C14.8243 13.2312 14.648 13.175 14.503 13.0613L0.613103 2.27046C0.498548 2.20611 0.404588 2.17436 0.326931 2.16749Z" fill="#FAFAFA"/>
</svg>
