<svg width="29" height="29" viewBox="0 0 29 29" fill="none" xmlns="http://www.w3.org/2000/svg">
<path d="M14.5 0C22.5084 0 29 6.49165 29 14.5C29 22.5083 22.5084 29 14.5 29C11.9375 29.0041 9.42017 28.326 7.20652 27.0352L0.00582039 29L1.96622 21.7964C0.674405 19.5821 -0.00426064 17.0636 2.01263e-05 14.5C2.01263e-05 6.49165 6.49167 0 14.5 0ZM9.55841 7.68499L9.26841 7.69659C9.08067 7.70803 8.89718 7.75735 8.72901 7.84159C8.57172 7.93067 8.42813 8.04202 8.30271 8.17219C8.12871 8.33604 8.03011 8.47814 7.92426 8.61589C7.38794 9.3132 7.09918 10.1693 7.10357 11.049C7.10647 11.7595 7.29207 12.4511 7.58206 13.0978C8.17511 14.4057 9.15096 15.7905 10.4386 17.0737C10.7489 17.3826 11.0534 17.6929 11.3811 17.9814C12.981 19.3901 14.8875 20.4059 16.9491 20.9481L17.7727 21.0743C18.0409 21.0888 18.3092 21.0685 18.5789 21.0554C19.0012 21.0336 19.4135 20.9193 19.7867 20.7205C19.9766 20.6227 20.1619 20.5162 20.3421 20.4015C20.3421 20.4015 20.4044 20.3609 20.5233 20.271C20.7191 20.126 20.8394 20.023 21.0018 19.8534C21.1222 19.7287 21.2266 19.5822 21.3063 19.4155C21.4194 19.1791 21.5325 18.7282 21.5789 18.3526C21.6137 18.0655 21.6036 17.9089 21.5992 17.8118C21.5934 17.6566 21.4644 17.4957 21.3237 17.4275L20.4798 17.0491C20.4798 17.0491 19.2183 16.4995 18.4469 16.1486C18.3662 16.1134 18.2797 16.0932 18.1917 16.0892C18.0925 16.079 17.9923 16.0902 17.8977 16.1219C17.8032 16.1537 17.7165 16.2053 17.6436 16.2733C17.6364 16.2704 17.5392 16.3531 16.4909 17.6233C16.4307 17.7041 16.3478 17.7652 16.2528 17.7988C16.1577 17.8324 16.0549 17.8369 15.9573 17.8118C15.8628 17.7865 15.7703 17.7545 15.6803 17.7161C15.5005 17.6407 15.4382 17.6117 15.3149 17.5595C14.4827 17.1963 13.7122 16.7057 13.0312 16.1051C12.8485 15.9456 12.6788 15.7716 12.5048 15.6034C11.9344 15.0571 11.4372 14.4391 11.0258 13.7648L10.9403 13.6271C10.8788 13.5345 10.8291 13.4347 10.7924 13.3298C10.7373 13.1167 10.8808 12.9456 10.8808 12.9456C10.8808 12.9456 11.2332 12.5599 11.397 12.3511C11.5565 12.1481 11.6914 11.9509 11.7784 11.8102C11.9495 11.5347 12.0031 11.252 11.9132 11.033C11.5072 10.0412 11.0867 9.05379 10.6546 8.07359C10.5691 7.87929 10.3153 7.74009 10.0848 7.71254C10.0065 7.70384 9.92816 7.69514 9.84986 7.68934C9.65514 7.67967 9.46001 7.68161 9.26551 7.69514L9.55696 7.68354L9.55841 7.68499Z" fill="#FAFAFA"/>
</svg>
